<?xml version="1.0" encoding="utf-8"?>
<!-- Generator: Adobe Illustrator 24.2.3, SVG Export Plug-In . SVG Version: 6.00 Build 0)  -->
<svg version="1.1" id="Layer_1" xmlns="http://www.w3.org/2000/svg" xmlns:xlink="http://www.w3.org/1999/xlink" x="0px" y="0px"
	 viewBox="0 0 2844 2000" style="enable-background:new 0 0 2844 2000;" xml:space="preserve">
<style type="text/css">
	.st0{fill:#FFC495;}
	.st1{opacity:0.3;fill:#FFFFFF;}
	.st2{fill:#07085B;}
	.st3{fill:#55769F;}
	.st4{fill:#FF5B7E;}
	.st5{fill:#E03268;}
	.st6{fill:#8FD0D6;}
	.st7{fill:#CBEFEF;}
	.st8{fill:#CFE8EA;}
	.st9{fill:#74BDC1;}
	.st10{fill:#F4A640;}
	.st11{fill:#F9CC4B;}
	.st12{opacity:0.5;fill:#FFF9FF;}
	.st13{opacity:0.1;fill:#FFFFFF;}
	.st14{fill:#333333;}
	.st15{fill:#3CB4C5;}
	.st16{opacity:0.5;fill:#3CB4C5;}
	.st17{fill:#E87B50;}
	.st18{fill:#CFE4FF;}
	.st19{fill:#FDB137;}
	.st20{fill:#FFFFFF;}
	.st21{fill:#FEB546;}
	.st22{fill:#F9C27A;}
	.st23{fill:#E2881E;}
	.st24{fill:#6DB1B5;}
	.st25{fill:#FFC0BB;}
	.st26{fill:#F99893;}
	.st27{fill:#DAEEF7;}
	.st28{fill:#191919;}
	.st29{opacity:0.6;fill:#FC8D84;}
	.st30{opacity:0.3;fill:#F99893;}
	.st31{fill:#C8EEF1;}
	.st32{opacity:0.3;fill:#E87B50;}
</style>
<g>
	<path class="st0" d="M390.96,1836.19c0,0-363.81-207.6-163.55-716.99c200.25-509.39,718.2-376.52,910.49-605.73
		s579.7-578.05,1005.97-316.55c426.27,261.5,321.38,673.32,474.75,839.01c153.37,165.7,470.94,874.54-465.47,910.08
		C1216.75,1981.54,390.96,1836.19,390.96,1836.19z"/>
	<path class="st1" d="M2263.43,748.84c38.2-1.1,75.85-9.61,114.01-11.65c41.49-2.22,84.84,2.94,123.16-13.1
		c0.73-0.3,1.44-0.64,2.16-0.96c-12.07-47.99-26.05-97.93-45.06-148.27c-0.83,0.24-1.67,0.46-2.5,0.71
		c-24.5,7.36-47.46,19.24-72.01,26.42c-45.97,13.44-96.82,9.38-140.08-11.17c-48.66-23.11-87.64-65.94-139.64-80.01
		c-37.9-10.26-78.18-3.88-117.24-7.85c-39.06-3.97-81.94-23.85-91.37-61.96c-1.77-7.17-2.17-15.04,1.05-21.69
		c6.75-13.97,25.2-16.52,40.7-17.23c39.56-1.81,79.36-3.62,118.63,1.53c49.98,6.55,100.47,24.27,149.59,12.97
		c15.02-3.45,29.31-9.54,44.23-13.39c39.69-10.23,81.43-4.13,121.79,3.87c-52.1-75.09-124.06-147-226.99-210.15
		c-2.94-1.81-5.89-3.57-8.83-5.32c-39.54,21.46-74.02,52.67-115.48,70.53c-49.74,21.43-105.77,22.07-159.84,18.99
		c-32.32-1.84-67.89-3.96-93.61,15.69c-18.84,14.39-28.54,37.93-46.07,53.89c-21.19,19.3-50.89,25.24-78.67,32.28
		c-35.27,8.94-70.93,21.52-97.48,46.4c-26.54,24.88-41.87,64.69-29.02,98.73c16.31,43.22,68.37,60.26,114.4,64.18
		c58.89,5.01,119.49-2.12,176.27,14.31c38.58,11.17,73.19,32.64,109.2,50.41c62.29,30.75,129.31,50.63,196.5,68.26
		C2161.06,738.35,2211.93,750.33,2263.43,748.84z"/>
	<path class="st1" d="M334.82,932.34c10.72,4.96,21.44,9.91,32.16,14.87c29.76,13.76,60.01,27.68,92.4,32.78
		c29.84,4.7,60.3,1.74,90.36-1.24c36.64-3.63,73.59-7.31,108.74-18.29c38.73-12.1,74.59-32.85,114.11-42.06
		c43.48-10.13,88.8-5.74,133.42-4.24c59.26,1.99,119.68-1.42,175.54-21.31c55.86-19.89,107.13-57.91,133.09-111.22
		c13.73-28.19,20.66-60.64,42.04-83.57c22.13-23.74,55.96-33.04,80.16-54.67c35.87-32.07,43.27-91.37,16.39-131.28
		c-2.61-3.87-5.62-7.68-9.76-9.84c-6.46-3.36-14.22-2.08-21.45-1.21c-26.33,3.18-53.44-0.3-78.11-10.03
		c-20.76-8.19-39.91-20.71-59.97-30.35c-16.38,18.05-31.75,35.75-46.04,52.78c-18.96,22.61-41.11,41.68-65.79,58.21
		c16.94,4.59,33.41,10.88,49.05,18.84c13.11,6.67,27.1,16.77,27.92,31.46c0.8,14.3-11.42,25.84-23.6,33.38
		c-33.36,20.65-75.4,29.3-100.68,59.31c-22.32,26.5-28.57,66.68-58.07,84.85c-13.16,8.11-29.04,10.37-44.46,11.5
		c-51.3,3.77-104.97-2.62-152.47,17.11c-10.42,4.33-20.34,9.86-31.04,13.44c-14,4.69-28.89,5.91-43.63,6.79
		c-85.75,5.14-172.1-0.01-256.64-15.21C401.68,860.77,366.8,893.33,334.82,932.34z"/>
	<path class="st2" d="M2029.08,610.67c32.07,291.68-132.41,705.95-132.41,705.95s224.78-211.7,219.89-462.42l-71.9-1.24
		c0,0,37.04-24.16,68.5-43.86C2104.49,743.87,2079.01,676.76,2029.08,610.67z"/>
	<path class="st3" d="M1771.15,948.09l45.42-26.84l-39.23-5.73c11.71-48.86,32.96-92.16,58.33-129.68
		c29.63,8.99,63.53,18.41,63.53,18.41l-37.47-53.41c74.95-91.87,167.33-140.17,167.33-140.17
		c32.07,291.68-132.41,705.95-132.41,705.95C1784.32,1173.28,1756.63,1049.85,1771.15,948.09z"/>
	<path class="st4" d="M2142.45,898.74c-49.23,21.17-88.78,50.29-120.55,83.48c4.5,20.34,9.38,44.81,9.38,44.81l-30.28-21.08
		c-110.4,136.15-108.89,320.4-108.89,320.4c108.43-44.68,173.24-104.06,211.21-164.31c-7.73-11.24-19.45-27.74-19.45-27.74
		l30.97,7.99c16.27-30.37,26.2-60.57,31.92-88.84c-16.14-4.04-34.24-9.13-34.24-9.13l38.59-17.98
		C2159.8,953.22,2142.45,898.74,2142.45,898.74z"/>
	<path class="st5" d="M2103.32,1162.04c-7.73-11.24-19.45-27.74-19.45-27.74l30.97,7.99c16.27-30.37,26.2-60.57,31.92-88.84
		c-16.14-4.04-34.24-9.13-34.24-9.13l38.59-17.98c8.7-73.12-8.65-127.59-8.65-127.59c-139.34,150.41-250.34,427.6-250.34,427.6
		C2000.54,1281.67,2065.35,1222.29,2103.32,1162.04z"/>
	
		<rect x="1674.79" y="1257.85" transform="matrix(0.494 -0.8695 0.8695 0.494 -222.1539 2514.8689)" class="st6" width="749.5" height="380.88"/>
	<g>
		<path class="st7" d="M2372.5,1228.72l-346.24,609.42l-299.69-170.27l346.24-609.42L2372.5,1228.72z M2017.76,1807.26
			l323.87-570.04l-260.31-147.89l-323.87,570.04L2017.76,1807.26z"/>
	</g>
	
		<ellipse transform="matrix(0.494 -0.8695 0.8695 0.494 -221.8917 2515.4089)" class="st7" cx="2050.14" cy="1448.34" rx="141.43" ry="155.37"/>
	<path class="st6" d="M2020.35,1404.03c-8.35-2.2-16.06-2.54-23.57,2.79c1.04,0.86,1.74,1.62,2.6,2.11
		c11.57,6.67,23.2,13.23,34.71,20c2.52,1.48,3.94,1.17,6.09-0.8c5.03-4.59,10.27-8.98,15.77-12.99
		c19.31-14.06,39.42-11.54,57.4,1.77c21.65,16.03,27.72,36.42,19.62,62.28c-1.48,4.72-0.38,6.95,3.74,8.82
		c3,1.37,5.77,3.24,8.92,5.06c-2.89,5.02-5.6,9.75-8.58,14.94c-4.54-2.61-9.02-5.18-13.42-7.71c-23.97,29.55-53.01,25.9-71.24,17.24
		c4.11-9.39,8.22-18.79,12.43-28.43c11.19,3.06,21.68,2.89,33.11-3.49c-6.44-3.7-11.99-6.89-17.53-10.07
		c-7.58-4.35-15.24-8.58-22.71-13.12c-2.75-1.67-4.58-1.62-7.03,0.61c-7.81,7.11-16.39,13.09-26.74,15.96
		c-20.97,5.82-38.62-1.31-52.81-16.03c-13.25-13.74-15.17-30.88-8.94-48.86c0.42-1.2,0.85-2.39,1.24-3.6
		c0.14-0.45,0.17-0.93,0.33-1.82c-3.56-2.04-7.22-4.15-11.21-6.44c2.92-5.08,5.64-9.82,8.71-15.17c2.67,1.53,5.49,2.92,8.05,4.69
		c2.71,1.88,4.31,1.18,6.29-1.23c8.8-10.78,19.83-17.72,34.06-18.64c7.52-0.49,14.77,0.73,22.34,3.79
		C2028.07,1385.19,2024.3,1394.38,2020.35,1404.03z M2067.46,1447.73c13.64,7.84,26.89,15.45,40.15,23.07
		c4.42-9.76,0.5-21.9-9.08-28.55C2089.16,1435.74,2077.22,1437.65,2067.46,1447.73z M1987.34,1422.55
		c-1.41,10.55,3.05,20.11,10.63,23.88c8.37,4.16,18.9,2.64,24.86-3.49C2011.19,1436.26,1999.53,1429.56,1987.34,1422.55z"/>
	<path class="st7" d="M1935.37,1649.25c-9.92-5.63-22.52-2.16-28.15,7.75c-5.63,9.91-2.16,22.52,7.75,28.15
		c9.92,5.63,22.52,2.16,28.15-7.75C1948.75,1667.48,1945.28,1654.88,1935.37,1649.25z"/>
	<path class="st7" d="M2185.25,1209.42c-9.92-5.63-22.52-2.16-28.15,7.75s-2.16,22.52,7.75,28.15c9.91,5.63,22.52,2.16,28.15-7.75
		C2198.64,1227.65,2195.17,1215.05,2185.25,1209.42z"/>
	<path class="st6" d="M2316.22,1364.42c-1.15-0.94,26.42-46.51,26.42-46.51l-357.6,138.16l4.74,28.2L2316.22,1364.42z"/>
	
		<rect x="1855.38" y="1407.93" transform="matrix(0.9378 -0.3472 0.3472 0.9378 -416.2029 873.6733)" class="st6" width="749.5" height="380.88"/>
	<g>
		<path class="st7" d="M2618.62,1638.32l-657.31,243.34l-119.67-323.24l657.31-243.34L2618.62,1638.32z M1974.68,1852.56
			l614.84-227.62l-103.94-280.77l-614.84,227.62L1974.68,1852.56z"/>
	</g>
	
		<ellipse transform="matrix(0.9378 -0.3472 0.3472 0.9378 -416.317 873.8281)" class="st7" cx="2230.56" cy="1598.79" rx="141.43" ry="155.37"/>
	<path class="st6" d="M2236.29,1545.7c-4.97-7.06-10.65-12.28-19.83-13.04c0.25,1.33,0.29,2.36,0.63,3.29
		c4.56,12.55,9.23,25.06,13.67,37.65c0.97,2.76,2.26,3.43,5.18,3.31c6.8-0.27,13.64-0.26,20.43,0.22
		c23.83,1.67,37.6,16.55,42.78,38.31c6.25,26.21-2.24,45.72-25.09,60.28c-4.17,2.66-4.76,5.07-2.82,9.16
		c1.41,2.98,2.32,6.19,3.57,9.61c-5.44,1.98-10.57,3.85-16.18,5.9c-1.79-4.92-3.56-9.78-5.3-14.54
		c-37.37,7.18-57.24-14.32-65.61-32.68c9.19-4.54,18.39-9.09,27.82-13.75c6.59,9.55,14.73,16.17,27.58,18.65
		c-2.54-6.98-4.73-12.99-6.93-19c-3-8.21-6.13-16.38-8.92-24.66c-1.03-3.05-2.46-4.18-5.77-4.05c-10.55,0.41-20.97-0.54-30.74-5.01
		c-19.79-9.04-28.7-25.87-30.09-46.27c-1.29-19.05,8.28-33.39,24.62-43.15c1.09-0.65,2.19-1.29,3.27-1.96
		c0.4-0.25,0.73-0.6,1.42-1.18c-1.41-3.85-2.85-7.82-4.43-12.14c5.5-2.01,10.64-3.88,16.43-5.99c1.05,2.89,2.32,5.77,3.14,8.77
		c0.86,3.18,2.54,3.68,5.6,3.11c13.68-2.58,26.58-0.78,38.06,7.66c6.07,4.46,10.83,10.07,14.65,17.29
		C2254.33,1536.27,2245.53,1540.87,2236.29,1545.7z M2244.2,1609.47c5.39,14.78,10.62,29.13,15.87,43.51
		c9.66-4.62,14.48-16.44,11.44-27.7C2268.53,1614.27,2258.16,1608.04,2244.2,1609.47z M2199.11,1538.63
		c-7.87,7.17-10.62,17.35-7.24,25.11c3.72,8.57,12.76,14.19,21.26,13.33C2208.54,1564.47,2203.93,1551.84,2199.11,1538.63z"/>
	<path class="st7" d="M2013.38,1678.61c-3.96-10.69-15.84-16.15-26.53-12.19c-10.69,3.96-16.15,15.84-12.19,26.53
		c3.96,10.69,15.84,16.15,26.53,12.19C2011.88,1701.18,2017.34,1689.3,2013.38,1678.61z"/>
	<path class="st7" d="M2487.77,1502.98c-3.96-10.69-15.84-16.15-26.53-12.2c-10.69,3.96-16.15,15.84-12.2,26.53
		c3.96,10.69,15.84,16.15,26.53,12.2C2486.27,1525.55,2491.73,1513.68,2487.77,1502.98z"/>
	
		<rect x="1777.66" y="1564.52" transform="matrix(1 -3.078862e-03 3.078862e-03 1 -5.3931 6.6353)" class="st6" width="749.5" height="380.88"/>
	<g>
		<path class="st7" d="M2503.4,1926.22l-700.91,2.16l-1.06-344.68l700.91-2.16L2503.4,1926.22z M1825.07,1905.66l655.61-2.02
			l-0.92-299.39l-655.61,2.02L1825.07,1905.66z"/>
	</g>
	
		<ellipse transform="matrix(1 -3.105823e-03 3.105823e-03 1 -5.4419 6.6943)" class="st7" cx="2152.67" cy="1755.5" rx="141.43" ry="155.37"/>
	<path class="st6" d="M2176.33,1707.64c-2.23-8.34-5.77-15.2-14.13-19.08c-0.23,1.33-0.54,2.32-0.54,3.3
		c-0.04,13.35,0.04,26.71-0.13,40.06c-0.04,2.92,0.94,4,3.72,4.89c6.48,2.08,12.9,4.45,19.11,7.24c21.8,9.78,29.6,28.48,26.98,50.7
		c-3.16,26.76-17.85,42.15-44.31,47.96c-4.83,1.06-6.22,3.12-5.8,7.63c0.3,3.28,0.05,6.62,0.04,10.25
		c-5.79-0.01-11.25-0.02-17.23-0.03c0.01-5.23,0.02-10.41,0.03-15.48c-37.55-6.13-48.81-33.15-50.34-53.27
		c10.19-1.1,20.39-2.2,30.85-3.33c2.9,11.23,8.26,20.25,19.47,27.01c0.01-7.43,0.03-13.82,0.04-20.22
		c0.01-8.74-0.12-17.49,0.11-26.23c0.09-3.22-0.87-4.78-4.02-5.79c-10.05-3.25-19.5-7.73-27.14-15.28
		c-15.47-15.31-18.04-34.17-12.32-53.8c5.34-18.33,19.27-28.5,37.97-32.03c1.25-0.24,2.5-0.45,3.74-0.72
		c0.46-0.1,0.89-0.31,1.74-0.62c0.01-4.1,0.02-8.33,0.02-12.93c5.86,0.01,11.32,0.02,17.49,0.03c-0.01,3.08,0.2,6.22-0.07,9.32
		c-0.29,3.28,1.12,4.33,4.19,4.85c13.73,2.29,25.23,8.42,33.1,20.3c4.16,6.28,6.7,13.18,7.8,21.28
		C2196.52,1704.99,2186.67,1706.28,2176.33,1707.64z M2161.8,1770.23c-0.03,15.73-0.06,31.01-0.09,46.31
		c10.66-1.01,19.26-10.45,20.27-22.06C2182.99,1783.11,2175.4,1773.7,2161.8,1770.23z M2143.86,1688.19
		c-9.86,4.02-15.94,12.63-15.45,21.08c0.55,9.33,7.1,17.72,15.37,19.84C2143.81,1715.7,2143.84,1702.25,2143.86,1688.19z"/>
	<path class="st7" d="M1921.29,1755.67c-0.04-11.4-9.31-20.62-20.71-20.58c-11.4,0.04-20.62,9.31-20.58,20.71
		c0.04,11.4,9.31,20.62,20.71,20.58C1912.11,1776.34,1921.33,1767.07,1921.29,1755.67z"/>
	<path class="st7" d="M2427.15,1754.11c-0.04-11.4-9.31-20.62-20.71-20.58c-11.4,0.04-20.62,9.31-20.58,20.71
		s9.31,20.62,20.71,20.58C2417.97,1774.79,2427.18,1765.51,2427.15,1754.11z"/>
	<polygon class="st6" points="2526.97,1691.38 2526.57,1563.36 2003.25,1564.47 1998.16,1534.15 2555.25,1532.38 2555.57,1680.96 	
		"/>
	
		<rect x="556.92" y="899.67" transform="matrix(0.9703 -0.2421 0.2421 0.9703 -218.8536 183.3214)" class="st8" width="159.41" height="165.27"/>
	
		<rect x="70.23" y="1021.1" transform="matrix(0.9703 -0.2421 0.2421 0.9703 -262.7167 69.1191)" class="st8" width="159.41" height="165.27"/>
	<path class="st9" d="M844.34,1485.63L733.96,1043.2l-154.67,38.59l111.79,448.09l0.79,2.28c0.8,2.59,8.85,29.33,11.23,64.77
		c2.04,30.42,0.23,74.29-19.95,110.51c-19.65,35.27-54.31,59.26-105.83,73.24c-4.55,1.04-9.01,1.94-13.4,2.72c0,0,0,0,0,0
		l38.64,154.89c2.37-0.48,4.75-0.98,7.13-1.5l0.04,0.18c2.07-0.52,4.13-1.05,6.17-1.59c2.06-0.48,4.13-0.98,6.2-1.5l-0.04-0.18
		c45.83-12.81,86.03-31.91,119.61-56.9c33.96-25.27,61.38-56.6,81.47-93.12c17.84-32.42,29.87-68.9,35.77-108.44
		c4.49-30.11,5.43-62.05,2.8-94.96C857.93,1533.07,847.86,1497.09,844.34,1485.63z"/>
	<path class="st4" d="M449.48,1765.74c-34.83-22.5-57.04-60.38-69.53-88.19c-14.55-32.4-20.01-59.79-20.52-62.45l-0.38-2.38
		l-111.79-448.09L92.6,1203.21l110.38,442.44c2.28,11.76,10.28,48.27,29.13,91.71c13.14,30.28,28.97,58.05,47.08,82.52
		c23.78,32.14,51.54,58.7,82.52,78.94c34.9,22.8,73.81,37.58,115.67,43.93c39.26,5.96,81.29,4.45,125.19-4.45l-38.64-154.89
		C518.01,1791.55,480.43,1785.73,449.48,1765.74z"/>
	
		<ellipse transform="matrix(0.7071 -0.7071 0.7071 0.7071 -611.1377 1880.4321)" class="st10" cx="1964.31" cy="1677.92" rx="271.05" ry="271.05"/>
	
		<ellipse transform="matrix(0.7071 -0.7071 0.7071 0.7071 -611.1379 1880.4323)" class="st11" cx="1964.31" cy="1677.92" rx="243.78" ry="243.78"/>
	<g>
		<g>
			<path class="st10" d="M1966.75,1906.14c-125.84,1.34-229.31-99.94-230.65-225.78c-1.34-125.84,99.94-229.31,225.78-230.65
				s229.31,99.94,230.65,225.78C2193.87,1801.32,2092.59,1904.79,1966.75,1906.14z M1961.96,1458.1
				c-121.21,1.29-218.78,100.96-217.48,222.18c1.3,121.21,100.96,218.78,222.18,217.48c121.21-1.3,218.78-100.96,217.48-222.18
				C2182.85,1554.36,2083.18,1456.8,1961.96,1458.1z"/>
		</g>
	</g>
	<path class="st12" d="M2001.45,1605.74c-3.59-12.75-9.15-23.2-22.04-28.98c-0.32,2.05-0.78,3.56-0.77,5.08
		c0.19,20.48,0.57,40.96,0.58,61.44c0,4.49,1.52,6.11,5.8,7.43c9.97,3.07,19.87,6.58,29.44,10.74
		c33.62,14.58,45.94,43.12,42.35,77.23c-4.33,41.1-26.56,64.99-67.04,74.41c-7.38,1.72-9.47,4.91-8.75,11.81
		c0.53,5.03,0.2,10.14,0.26,15.73c-8.88,0.09-17.25,0.18-26.42,0.28c-0.09-8.03-0.17-15.96-0.25-23.74
		c-57.72-8.67-75.49-49.91-78.23-80.74c15.6-1.88,31.23-3.77,47.26-5.7c4.67,17.17,13.06,30.9,30.39,41.05
		c-0.12-11.39-0.23-21.2-0.33-31.01c-0.15-13.41-0.52-26.82-0.33-40.22c0.07-4.94-1.43-7.31-6.28-8.81
		c-15.47-4.79-30.05-11.48-41.91-22.92c-24.02-23.18-28.33-52.06-19.93-82.27c7.84-28.21,29.01-44.08,57.62-49.86
		c1.91-0.39,3.83-0.74,5.72-1.17c0.7-0.16,1.37-0.5,2.66-0.98c-0.07-6.29-0.14-12.77-0.21-19.83c8.99-0.1,17.37-0.19,26.83-0.29
		c0.05,4.72,0.42,9.53,0.07,14.29c-0.38,5.04,1.79,6.62,6.52,7.35c21.1,3.24,38.86,12.42,51.15,30.5
		c6.5,9.55,10.52,20.09,12.38,32.48C2032.36,1601.28,2017.28,1603.46,2001.45,1605.74z M1980.37,1702.01
		c0.26,24.12,0.51,47.56,0.76,71.03c16.33-1.76,29.33-16.39,30.67-34.23C2013.11,1721.36,2001.29,1707.07,1980.37,1702.01z
		 M1951.28,1576.54c-15.04,6.36-24.21,19.68-23.29,32.63c1.02,14.3,11.23,27.04,23.96,30.14
		C1951.73,1618.73,1951.51,1598.1,1951.28,1576.54z"/>
	<g>
		<path class="st2" d="M664.39,1812.91c0,0,119.08-164.62,57.26-195.08c0,0-11.04-17.47-55.5,44.99c0,0-27.47,9.03-29.03-22.82
			c-1.56-31.86,43.54-80.33,14.78-107.95c-28.76-27.62-43.61,22.08-63.88,31.52c-20.27,9.44-10.67-117.58-38.78-131.2
			c-28.11-13.63-35.76,36.48-51.5,42.33c-15.74,5.85-62.23-142.16-137.44-114.65c-75.21,27.51,10.71,82.92,46.79,117.22
			c36.09,34.3-38.41,15.15-46.18,59c-7.78,43.85,125.15,8.53,113.11,51.17c-12.04,42.64-50.14,18.34-57.24,50.19
			c-11.48,51.49,120.23,2,117.26,37.45c-2.37,28.27-50.13,9.68-55.22,31.53C473.73,1728.46,556.42,1806.79,664.39,1812.91z"/>
		<path class="st13" d="M725.83,1620.28c-0.54-0.38-1.11-0.74-1.69-1.09c-2.26,6.77-5.05,14.16-8.47,21.84
			c-12.57,28.24-36.49,66.37-79.08,88.22c-10.87-23.55-24.31-48.2-40.27-73.84c11.3-64.36,33.87-100.32,50.82-119.15
			c1.47-1.63,2.92-3.16,4.35-4.6c-0.49-0.46-0.97-0.89-1.46-1.31c-1.39,1.41-2.8,2.89-4.23,4.47
			c-16.97,18.81-39.5,54.53-51.02,118.11c-0.07-0.11-0.13-0.21-0.2-0.32c-16.49-26.27-35.62-53.6-57.2-81.73
			c-0.4-2.84-4.1-29.96-3.88-62.49c0.16-23.37,2.42-53.13,10.91-77.82c-0.65-0.16-1.3-0.29-1.93-0.38
			c-8.5,24.91-10.78,54.74-10.93,78.18c-0.18,27.23,2.37,50.71,3.45,59.42c-16.51-21.4-34.42-43.26-53.67-65.47
			c-53.67-61.95-105.25-112.19-132.14-137.45c-0.62,0.33-1.22,0.65-1.8,0.99c26.72,25.08,78.53,75.49,132.47,137.74
			c9.07,10.47,18.44,21.56,27.93,33.15c-7.34-1.28-29.23-4.75-57.66-6.03c-23.96-1.07-56.34-0.7-89.17,5.2
			c-0.02,0.11-0.04,0.21-0.06,0.32c-0.1,0.59-0.18,1.16-0.23,1.72c32.86-5.98,65.34-6.36,89.34-5.29
			c32.54,1.45,56.46,5.8,59.68,6.41c20.98,25.75,42.5,53.94,62.65,83.42c-46.27-5.77-119.95,10.18-156.19,19.16
			c-0.06,0.7-0.08,1.38-0.08,2.03c36.37-9.04,111.68-25.41,157.75-19.02c28.57,42.03,54.28,86.6,71.7,130.42
			c-38.72,6.29-84.68-10.89-116.57-26.53c-19.73-9.68-36.62-19.95-47.66-27.11c-0.41,0.5-0.78,1.04-1.1,1.61
			c11.08,7.19,28.05,17.52,47.87,27.24c32.27,15.83,78.87,33.23,118.2,26.65c7.4,18.87,13.25,37.58,17.11,55.88
			c0.34,0.02,0.68,0.05,1.02,0.07c0,0,0.27-0.37,0.76-1.07c-5.35-25.13-14.63-52.14-27.73-80.8c2.78-1.42,5.51-2.92,8.2-4.52
			c15.66-9.27,29.77-21.38,42.04-36.11c11.66-13.99,21.69-30.35,29.82-48.64C720.84,1634.23,723.59,1626.96,725.83,1620.28z"/>
	</g>
	<path class="st6" d="M741.32,1855.02c0,0-105.1-118.02-301.56-110l34.07,47.03l-54.9-43.1c0,0-113.91,9.45-191.52,37.25
		c0,0,166.81,87.87,208.93,95.58l56.22-16.71l-30.45,42.01c0,0,91.78,51.03,186.18,40.58
		C742.69,1937.23,741.32,1855.02,741.32,1855.02z"/>
	<path class="st14" d="M1244.44,961.27h612.19c26.66,0,48.26,21.61,48.26,48.26v894.93c0,26.66-21.61,48.26-48.26,48.26h-612.19
		c-26.65,0-48.26-21.61-48.26-48.26v-894.93C1196.17,982.88,1217.78,961.27,1244.44,961.27z"/>
	<rect x="1259.99" y="1042.82" class="st15" width="587.77" height="151.25"/>
	<polygon class="st16" points="1275.58,1064.59 1847.76,1064.59 1847.76,1042.82 1259.99,1042.82 1259.99,1194.07 1275.58,1194.07 	
		"/>
	<path class="st17" d="M1407.53,1291.7H1281.1c-11.66,0-21.11-9.45-21.11-21.11v-12.26c0-11.66,9.45-21.11,21.11-21.11h126.42
		c11.66,0,21.11,9.45,21.11,21.11v12.26C1428.64,1282.25,1419.19,1291.7,1407.53,1291.7z"/>
	<path class="st17" d="M1617.09,1291.7h-126.42c-11.66,0-21.11-9.45-21.11-21.11v-12.26c0-11.66,9.45-21.11,21.11-21.11h126.42
		c11.66,0,21.11,9.45,21.11,21.11v12.26C1638.2,1282.25,1628.75,1291.7,1617.09,1291.7z"/>
	<path class="st17" d="M1826.65,1291.7h-126.42c-11.66,0-21.12-9.45-21.12-21.11v-12.26c0-11.66,9.45-21.11,21.12-21.11h126.42
		c11.66,0,21.11,9.45,21.11,21.11v12.26C1847.76,1282.25,1838.31,1291.7,1826.65,1291.7z"/>
	<path class="st18" d="M1360.95,1457h-71.41c-16.32,0-29.56-13.23-29.56-29.56v-63.04c0-16.32,13.23-29.55,29.56-29.55h71.41
		c16.32,0,29.56,13.23,29.56,29.55v63.04C1390.51,1443.77,1377.28,1457,1360.95,1457z"/>
	<path class="st18" d="M1513.37,1457h-71.41c-16.32,0-29.56-13.23-29.56-29.56v-63.04c0-16.32,13.23-29.55,29.56-29.55h71.41
		c16.32,0,29.56,13.23,29.56,29.55v63.04C1542.92,1443.77,1529.69,1457,1513.37,1457z"/>
	<path class="st18" d="M1665.79,1457h-71.41c-16.32,0-29.56-13.23-29.56-29.56v-63.04c0-16.32,13.23-29.55,29.56-29.55h71.41
		c16.32,0,29.56,13.23,29.56,29.55v63.04C1695.34,1443.77,1682.11,1457,1665.79,1457z"/>
	<path class="st18" d="M1360.95,1607.59h-71.41c-16.32,0-29.56-13.23-29.56-29.56V1515c0-16.32,13.23-29.56,29.56-29.56h71.41
		c16.32,0,29.56,13.23,29.56,29.56v63.04C1390.51,1594.36,1377.28,1607.59,1360.95,1607.59z"/>
	<path class="st18" d="M1513.37,1607.59h-71.41c-16.32,0-29.56-13.23-29.56-29.56V1515c0-16.32,13.23-29.56,29.56-29.56h71.41
		c16.32,0,29.56,13.23,29.56,29.56v63.04C1542.92,1594.36,1529.69,1607.59,1513.37,1607.59z"/>
	<path class="st18" d="M1665.79,1607.59h-71.41c-16.32,0-29.56-13.23-29.56-29.56V1515c0-16.32,13.23-29.56,29.56-29.56h71.41
		c16.32,0,29.56,13.23,29.56,29.56v63.04C1695.34,1594.36,1682.11,1607.59,1665.79,1607.59z"/>
	<path class="st19" d="M1821.17,1334.85h-77.34c-14.68,0-26.59,11.9-26.59,26.59v37.81v31.17V1581c0,14.69,11.91,26.59,26.59,26.59
		h77.34c14.69,0,26.59-11.9,26.59-26.59v-150.59v-31.17v-37.81C1847.76,1346.75,1835.86,1334.85,1821.17,1334.85z"/>
	<path class="st18" d="M1360.95,1758.19h-71.41c-16.32,0-29.56-13.23-29.56-29.56v-63.04c0-16.32,13.23-29.56,29.56-29.56h71.41
		c16.32,0,29.56,13.23,29.56,29.56v63.04C1390.51,1744.95,1377.28,1758.19,1360.95,1758.19z"/>
	<path class="st18" d="M1513.37,1758.19h-71.41c-16.32,0-29.56-13.23-29.56-29.56v-63.04c0-16.32,13.23-29.56,29.56-29.56h71.41
		c16.32,0,29.56,13.23,29.56,29.56v63.04C1542.92,1744.95,1529.69,1758.19,1513.37,1758.19z"/>
	<path class="st18" d="M1665.79,1758.19h-71.41c-16.32,0-29.56-13.23-29.56-29.56v-63.04c0-16.32,13.23-29.56,29.56-29.56h71.41
		c16.32,0,29.56,13.23,29.56,29.56v63.04C1695.34,1744.95,1682.11,1758.19,1665.79,1758.19z"/>
	<path class="st19" d="M1818.2,1758.19h-71.41c-16.32,0-29.56-13.23-29.56-29.56v-63.04c0-16.32,13.23-29.56,29.56-29.56h71.41
		c16.32,0,29.56,13.23,29.56,29.56v63.04C1847.76,1744.95,1834.53,1758.19,1818.2,1758.19z"/>
	<path class="st18" d="M1360.95,1908.78h-71.41c-16.32,0-29.56-13.23-29.56-29.55v-63.04c0-16.32,13.23-29.56,29.56-29.56h71.41
		c16.32,0,29.56,13.23,29.56,29.56v63.04C1390.51,1895.55,1377.28,1908.78,1360.95,1908.78z"/>
	<path class="st18" d="M1513.37,1908.78h-71.41c-16.32,0-29.56-13.23-29.56-29.55v-63.04c0-16.32,13.23-29.56,29.56-29.56h71.41
		c16.32,0,29.56,13.23,29.56,29.56v63.04C1542.92,1895.55,1529.69,1908.78,1513.37,1908.78z"/>
	<path class="st19" d="M1665.79,1908.78h-71.41c-16.32,0-29.56-13.23-29.56-29.55v-63.04c0-16.32,13.23-29.56,29.56-29.56h71.41
		c16.32,0,29.56,13.23,29.56,29.56v63.04C1695.34,1895.55,1682.11,1908.78,1665.79,1908.78z"/>
	<path class="st17" d="M1818.2,1908.78h-71.41c-16.32,0-29.56-13.23-29.56-29.55v-63.04c0-16.32,13.23-29.56,29.56-29.56h71.41
		c16.32,0,29.56,13.23,29.56,29.56v63.04C1847.76,1895.55,1834.53,1908.78,1818.2,1908.78z"/>
	<g>
		<path class="st20" d="M1347.59,1665.01v6.18l-30.13,63.03h-9.69l30.03-61.22v-0.21h-33.86v-7.77H1347.59z"/>
	</g>
	<g>
		<path class="st20" d="M1454.82,1716.65c0-8.73,5.22-14.91,13.73-18.53l-0.11-0.32c-7.67-3.62-10.97-9.58-10.97-15.55
			c0-10.97,9.26-18.42,21.4-18.42c13.42,0,20.12,8.41,20.12,17.04c0,5.86-2.88,12.14-11.39,16.18v0.32
			c8.62,3.41,13.95,9.48,13.95,17.89c0,12.03-10.33,20.12-23.53,20.12C1463.55,1735.39,1454.82,1726.77,1454.82,1716.65z
			 M1492.08,1716.23c0-8.41-5.86-12.46-15.23-15.12c-8.09,2.34-12.46,7.67-12.46,14.27c-0.32,7.03,5,13.2,13.84,13.2
			C1486.65,1728.58,1492.08,1723.36,1492.08,1716.23z M1466.31,1681.62c0,6.92,5.22,10.65,13.2,12.78
			c5.96-2.02,10.54-6.28,10.54-12.56c0-5.54-3.3-11.29-11.71-11.29C1470.57,1670.55,1466.31,1675.66,1466.31,1681.62z"/>
	</g>
	<g>
		<path class="st20" d="M1501.66,1847.61c0,23.53-8.73,36.52-24.06,36.52c-13.52,0-22.68-12.67-22.89-35.56
			c0-23.21,10.01-35.99,24.06-35.99C1493.36,1812.59,1501.66,1825.57,1501.66,1847.61z M1464.08,1848.68
			c0,17.99,5.54,28.21,14.05,28.21c9.58,0,14.16-11.18,14.16-28.85c0-17.04-4.37-28.21-14.05-28.21
			C1470.04,1819.83,1464.08,1829.83,1464.08,1848.68z"/>
	</g>
	<g>
		<path class="st20" d="M1615.7,1727.62c2.02,0.21,4.37,0,7.56-0.32c5.43-0.75,10.54-2.98,14.48-6.71
			c4.58-4.15,7.88-10.22,9.16-18.42h-0.32c-3.83,4.68-9.37,7.45-16.29,7.45c-12.46,0-20.44-9.37-20.44-21.19
			c0-13.1,9.48-24.59,23.64-24.59c14.16,0,22.89,11.5,22.89,29.17c0,15.23-5.11,25.87-11.92,32.47c-5.32,5.22-12.67,8.41-20.12,9.26
			c-3.41,0.53-6.39,0.64-8.62,0.53V1727.62z M1619.11,1687.8c0,8.62,5.22,14.69,13.31,14.69c6.28,0,11.18-3.09,13.63-7.24
			c0.53-0.85,0.85-1.92,0.85-3.41c0-11.82-4.37-20.87-14.16-20.87C1624.75,1670.98,1619.11,1678,1619.11,1687.8z"/>
	</g>
	<g>
		<path class="st20" d="M1331.62,1580.68v-18.84h-32.15v-6.18l30.88-44.19h10.11v43.01h9.69v7.35h-9.69v18.84H1331.62z
			 M1331.62,1554.49v-23.1c0-3.62,0.11-7.24,0.32-10.86h-0.32c-2.13,4.05-3.83,7.03-5.75,10.22l-16.93,23.53v0.21H1331.62z"/>
	</g>
	<g>
		<path class="st20" d="M1496.98,1519.35h-26.4l-2.66,17.78c1.6-0.21,3.09-0.42,5.64-0.42c5.32,0,10.65,1.17,14.91,3.73
			c5.43,3.09,9.9,9.05,9.9,17.78c0,13.52-10.75,23.64-25.77,23.64c-7.56,0-13.95-2.13-17.25-4.26l2.34-7.13
			c2.88,1.7,8.52,3.83,14.8,3.83c8.84,0,16.4-5.75,16.4-15.01c-0.11-8.94-6.07-15.33-19.91-15.33c-3.94,0-7.03,0.43-9.58,0.75
			l4.47-33.22h33.11V1519.35z"/>
	</g>
	<g>
		<path class="st20" d="M1649.77,1518.08c-1.92-0.11-4.37,0-7.03,0.43c-14.69,2.45-22.47,13.2-24.06,24.59h0.32
			c3.3-4.37,9.05-7.99,16.71-7.99c12.25,0,20.87,8.84,20.87,22.36c0,12.67-8.62,24.38-23,24.38c-14.8,0-24.49-11.5-24.49-29.49
			c0-13.63,4.9-24.38,11.71-31.2c5.75-5.64,13.42-9.16,22.15-10.22c2.77-0.43,5.11-0.53,6.81-0.53V1518.08z M1647.11,1558
			c0-9.9-5.64-15.86-14.27-15.86c-5.64,0-10.86,3.51-13.42,8.52c-0.64,1.06-1.06,2.45-1.06,4.15c0.21,11.39,5.43,19.8,15.23,19.8
			C1641.68,1574.61,1647.11,1567.9,1647.11,1558z"/>
	</g>
	<g>
		<path class="st20" d="M1323,1373.06h-0.21l-12.03,6.5l-1.81-7.13l15.12-8.09h7.99v69.21H1323V1373.06z"/>
	</g>
	<g>
		<path class="st20" d="M1455.67,1433.54v-5.75l7.35-7.13c17.67-16.82,25.66-25.77,25.77-36.2c0-7.03-3.41-13.52-13.73-13.52
			c-6.28,0-11.5,3.19-14.69,5.86l-2.98-6.6c4.79-4.05,11.61-7.03,19.59-7.03c14.91,0,21.19,10.22,21.19,20.12
			c0,12.78-9.26,23.1-23.85,37.16l-5.54,5.11v0.21h31.09v7.77H1455.67z"/>
	</g>
	<g>
		<path class="st20" d="M1612.51,1422.78c2.66,1.7,8.84,4.37,15.33,4.37c12.03,0,15.76-7.67,15.65-13.42
			c-0.11-9.69-8.84-13.84-17.89-13.84h-5.22v-7.03h5.22c6.81,0,15.44-3.51,15.44-11.71c0-5.54-3.51-10.43-12.14-10.43
			c-5.54,0-10.86,2.45-13.84,4.58l-2.45-6.81c3.62-2.66,10.65-5.32,18.1-5.32c13.63,0,19.8,8.09,19.8,16.5
			c0,7.13-4.26,13.2-12.78,16.29v0.21c8.52,1.7,15.44,8.09,15.44,17.78c0,11.07-8.62,20.76-25.23,20.76
			c-7.77,0-14.59-2.45-17.99-4.68L1612.51,1422.78z"/>
	</g>
	<g>
		<path class="st20" d="M1333.59,1873.84c0,4.61-3.74,8.35-8.35,8.35c-4.61,0-8.35-3.74-8.35-8.35s3.74-8.35,8.35-8.35
			C1329.86,1865.49,1333.59,1869.23,1333.59,1873.84z"/>
	</g>
	<g>
		<polygon class="st20" points="1832.08,1475.63 1788.15,1475.63 1788.15,1431.69 1776.85,1431.69 1776.85,1475.63 1732.92,1475.63 
			1732.92,1486.92 1776.85,1486.92 1776.85,1530.85 1788.15,1530.85 1788.15,1486.92 1832.08,1486.92 		"/>
	</g>
	<g>
		<polygon class="st20" points="1659.32,1873.71 1636.06,1850.45 1659.32,1827.19 1653.34,1821.21 1630.08,1844.47 1606.82,1821.21 
			1600.84,1827.19 1624.1,1850.45 1600.84,1873.71 1606.82,1879.69 1630.08,1856.43 1653.34,1879.69 		"/>
	</g>
	<g>
		<rect x="1743" y="1694.71" class="st20" width="73.57" height="11.27"/>
	</g>
	<g>
		<rect x="1745.71" y="1824.92" class="st20" width="73.57" height="11.27"/>
	</g>
	<g>
		<rect x="1745.71" y="1853.29" class="st20" width="73.57" height="11.27"/>
	</g>
	<g>
		<rect x="1112.82" y="1424.86" class="st10" width="247.91" height="104.9"/>
		<rect x="864.91" y="1424.86" class="st21" width="247.91" height="104.9"/>
		<rect x="617" y="1424.86" class="st22" width="247.91" height="104.9"/>
		<g>
			<path class="st23" d="M1362.67,1532.85H615.06v-111.07h747.61V1532.85z M618.94,1526.68h739.84v-98.74H618.94V1526.68z"/>
		</g>
	</g>
	<g>
		<rect x="1074.84" y="1634.67" class="st10" width="247.91" height="104.9"/>
		<rect x="826.93" y="1634.67" class="st21" width="247.91" height="104.9"/>
		<rect x="579.02" y="1634.67" class="st22" width="247.91" height="104.9"/>
		<g>
			<path class="st23" d="M1324.69,1742.66H577.08v-111.07h747.61V1742.66z M580.96,1736.49h739.84v-98.74H580.96V1736.49z"/>
		</g>
	</g>
	<g>
		<rect x="1112.82" y="1739.58" class="st10" width="247.91" height="104.9"/>
		<rect x="864.91" y="1739.58" class="st21" width="247.91" height="104.9"/>
		<rect x="617" y="1739.58" class="st22" width="247.91" height="104.9"/>
		<g>
			<path class="st23" d="M1362.67,1847.57H615.06v-111.07h747.61V1847.57z M618.94,1841.4h739.84v-98.74H618.94V1841.4z"/>
		</g>
	</g>
	<g>
		<rect x="1172.66" y="1844.48" class="st10" width="247.91" height="104.9"/>
		<rect x="924.75" y="1844.48" class="st21" width="247.91" height="104.9"/>
		<rect x="676.84" y="1844.48" class="st22" width="247.91" height="104.9"/>
		<g>
			<path class="st23" d="M1422.51,1952.47H674.9V1841.4h747.61V1952.47z M678.79,1946.31h739.84v-98.74H678.79V1946.31z"/>
		</g>
	</g>
	<g>
		<rect x="1153.67" y="1529.77" class="st10" width="247.91" height="104.9"/>
		<rect x="905.76" y="1529.77" class="st21" width="247.91" height="104.9"/>
		<rect x="657.85" y="1529.77" class="st22" width="247.91" height="104.9"/>
		<g>
			<path class="st23" d="M1403.52,1637.76H655.91v-111.07h747.61V1637.76z M659.8,1631.59h739.84v-98.74H659.8V1631.59z"/>
		</g>
	</g>
	<path class="st24" d="M783.6,729.46l7.48,56.35l-40.03-29.23l-122.51-62.59l94.76,8.68c0,0,48.27,11.73,50.89,14.09
		C776.8,719.13,783.6,729.46,783.6,729.46z"/>
	<polygon class="st25" points="1540.75,1091.07 1540.75,1100.7 1562.51,1106.38 1563.12,1085.14 	"/>
	<path class="st25" d="M1590.14,1089.07v11.48c0,0,20.91,6.27,20.83,6.32c-0.07,0.05,1.7-18.84,1.7-18.84L1590.14,1089.07z"/>
	<polygon class="st6" points="825.56,695.43 628.54,693.99 783.6,729.46 	"/>
	<polygon class="st6" points="720.26,786.15 771.89,744.68 628.54,693.99 	"/>
	<g>
		<path class="st24" d="M1027.27,1034.02l-2.6-3.84c3.98-2.69,7.63-6,10.84-9.81l3.55,2.99
			C1035.57,1027.5,1031.61,1031.09,1027.27,1034.02z"/>
	</g>
	<g>
		<path class="st24" d="M1053.34,996.21l-4.43-1.39c2.69-8.56,4.46-18.28,5.28-28.88l4.63,0.36
			C1057.97,977.25,1056.13,987.32,1053.34,996.21z M1058.66,935.97l-4.62,0.47c-0.13-1.27-0.28-2.54-0.45-3.81
			c-0.57-4.32-1.4-8.68-2.46-12.97c-0.97-3.95-2.17-7.93-3.55-11.83l4.37-1.55c1.43,4.04,2.67,8.16,3.68,12.26
			c1.1,4.45,1.96,8.98,2.55,13.46C1058.37,933.29,1058.53,934.62,1058.66,935.97z M1034.86,881.33c-4.96-8.1-10.88-16.07-17.59-23.7
			l3.48-3.07c6.89,7.82,12.96,16.01,18.06,24.34L1034.86,881.33z M889.9,870.35c-3.16,0.78-11.21,0.96-16.37-2.12
			c-3.86-2.3-7.08-5.92-9.3-10.46l4.17-2.04c1.85,3.78,4.38,6.64,7.51,8.51c3.73,2.22,10.37,2.22,12.89,1.6
			c0.34-0.08,0.47-0.15,0.47-0.15c0.2-0.13,0.43-0.28,0.66-0.43l2.58,3.86c-0.27,0.18-0.53,0.35-0.8,0.52
			C891.23,869.94,890.65,870.17,889.9,870.35z M996.13,836.92c-7.38-6.28-15.38-12.25-23.76-17.74l2.54-3.88
			c8.54,5.59,16.7,11.68,24.23,18.09L996.13,836.92z M909.21,843.06l-4.54-0.95c0.6-2.86,0.91-5.77,0.91-8.67
			c0.01-4.07-0.51-8.28-1.55-12.5c-0.57-2.29-1.29-4.63-2.16-6.95l4.34-1.63c0.93,2.49,1.72,5,2.33,7.47
			c1.13,4.59,1.7,9.17,1.69,13.62C910.21,836.66,909.87,839.89,909.21,843.06z M868.42,828.78l-4.19-2
			c4.2-8.79,12.1-16.49,21.68-21.13l0.64-0.31l1.97,4.2l-0.59,0.28C879.29,814.01,872.18,820.92,868.42,828.78z M945.39,807.97
			c-8.41-2.57-15.09-4.13-18.33-4.29c-3.71-0.18-7.1-0.21-10.37-0.12l-0.14-4.64c3.39-0.1,6.9-0.06,10.73,0.12
			c4.93,0.23,14.31,2.91,19.46,4.48L945.39,807.97z M886.82,789.19c-6.33-7.41-13.73-13.85-22-19.14l2.5-3.91
			c8.66,5.54,16.4,12.28,23.03,20.04L886.82,789.19z"/>
	</g>
	<g>
		<path class="st24" d="M838.21,758.17c-4.88-1.34-9.81-2.27-14.65-2.76l0.47-4.62c5.1,0.52,10.28,1.49,15.41,2.91L838.21,758.17z"
			/>
	</g>
	<path class="st2" d="M1461.96,643.54l-3.99,25.04l-8.43-33.39c0,0,11.82-5.74,12.34-3.65
		C1462.39,633.63,1461.96,643.54,1461.96,643.54z"/>
	<polygon class="st25" points="1394.85,697.44 1391.2,740.73 1429.4,738.9 1425,700.57 	"/>
	<path class="st26" d="M1427.09,718.8l-2.09-18.23l-30.14-3.13l-1.26,14.99C1399.58,718.4,1410.36,724.59,1427.09,718.8z"/>
	<g>
		<path class="st26" d="M1450.51,668.27c-2.3,4.75-1.08,10.09,2.72,11.93c3.8,1.84,8.74-0.52,11.04-5.27
			c2.3-4.75,1.08-10.09-2.72-11.93C1457.75,661.16,1452.81,663.52,1450.51,668.27z"/>
		<path class="st25" d="M1447.31,696.71c1.35-2.03,2.51-4.19,3.48-6.48c2.73-6.12,4.33-12.71,5.27-18.48
			c0.2-1.24,0.47-2.46,0.77-3.68c1.19-4.93,1.51-10.21,0.68-15.71c-2.66-17.71-16.91-31.83-34.65-34.29
			c-23.9-3.3-44.96,14.39-46.44,37.83c-2.46-1.58-5.3-2.09-7.89-1.12c-4.97,1.85-7.12,8.39-4.81,14.61
			c2.32,6.21,8.22,9.75,13.19,7.9c0.69-0.26,1.32-0.61,1.9-1.04c0.77,20.07,16.13,36.5,35.75,37.42c9.59,0.45,18.52-2.9,25.45-8.75
			c0.46-0.34,0.95-0.74,1.46-1.2C1443.72,701.65,1445.64,699.28,1447.31,696.71z"/>
		<path class="st26" d="M1426.3,658.66c0.08,2.34,0.1,4.62,0.22,6.86c0.15,2.19,0.38,4.52,1.26,6.07l0.18,0.25
			c0.07,0.09,0.08,0.14,0.22,0.31c0.21,0.29,0.46,0.54,0.62,0.88c0.35,0.64,0.6,1.38,0.61,2.14c0.05,1.55-0.76,2.93-1.78,3.78
			c-2.09,1.75-4.79,1.92-7.02,1.37c2.28-0.4,4.47-1.19,5.74-2.68c0.59-0.74,0.98-1.57,0.84-2.34c-0.04-0.38-0.17-0.76-0.4-1.11
			c-0.08-0.19-0.26-0.34-0.38-0.52l-0.29-0.39l-0.33-0.45c-0.73-1.25-0.97-2.51-1.1-3.73c-0.11-1.23-0.1-2.42,0.02-3.6
			C1424.92,663.13,1425.42,660.84,1426.3,658.66z"/>
		<path class="st14" d="M1412.76,661.75c-0.09,1.97-1.76,3.48-3.73,3.39c-1.97-0.09-3.48-1.76-3.39-3.73
			c0.09-1.97,1.76-3.48,3.73-3.39C1411.34,658.12,1412.85,659.79,1412.76,661.75z"/>
		<path class="st14" d="M1443.23,665.19c-0.09,1.97-1.76,3.48-3.73,3.39c-1.97-0.09-3.48-1.76-3.39-3.73
			c0.09-1.97,1.76-3.48,3.73-3.39C1441.8,661.55,1443.32,663.22,1443.23,665.19z"/>
		<path class="st26" d="M1406.79,685.87c0.94,0.81,1.91,1.57,2.94,2.24c1.02,0.69,2.07,1.31,3.17,1.84
			c2.19,1.06,4.52,1.83,6.91,2.12c2.4,0.3,4.83,0.09,7.18-0.53c2.34-0.66,4.57-1.73,6.68-3.03c-0.95,0.8-1.97,1.52-3.04,2.16
			c-1.08,0.64-2.24,1.13-3.42,1.56c-1.2,0.4-2.44,0.68-3.7,0.81c-1.26,0.12-2.54,0.1-3.8-0.04c-2.52-0.33-4.95-1.17-7.13-2.42
			C1410.39,689.34,1408.39,687.78,1406.79,685.87z"/>
		<path class="st2" d="M1417.23,653.71c-1.81-0.56-3.52-0.99-5.21-1.25c-1.69-0.26-3.34-0.31-4.95-0.11
			c-1.6,0.21-3.21,0.56-4.76,1.26c-0.82,0.26-1.54,0.74-2.37,1.09c-0.8,0.4-1.55,0.91-2.44,1.3c0.45-0.83,0.97-1.63,1.58-2.38
			c0.67-0.67,1.32-1.43,2.15-1.94c1.57-1.19,3.54-1.88,5.52-2.12c2-0.24,4.04,0.05,5.85,0.78
			C1414.42,651.08,1416.07,652.18,1417.23,653.71z"/>
		<path class="st2" d="M1432.93,655.47c1.44-1.27,3.27-2.03,5.19-2.41c1.92-0.36,3.98-0.25,5.89,0.37c1.9,0.63,3.7,1.68,5,3.16
			c0.72,0.66,1.21,1.53,1.74,2.32c0.45,0.85,0.81,1.74,1.09,2.64c-0.8-0.56-1.43-1.2-2.14-1.75c-0.75-0.5-1.36-1.12-2.11-1.53
			c-1.38-0.99-2.9-1.64-4.42-2.16c-1.54-0.5-3.17-0.78-4.88-0.85C1436.58,655.19,1434.82,655.27,1432.93,655.47z"/>
	</g>
	<path class="st5" d="M1415.89,900.5c0,0-7.97,54.04,44.25,63.45c52.21,9.41,117.18,6.61,117.18,6.61l9.04,124.13l27.26,1.39
		c0,0,70.19-172.47-26.96-199.43l-87.3,0.43l-35.95-2.57c0,0-36.38-8.99-36.8-7.28C1426.16,888.94,1416.74,901.35,1415.89,900.5z"/>
	<path class="st4" d="M1367.9,900.78c0,0-7.97,54.04,44.25,63.45c52.21,9.42,117.17,6.61,117.17,6.61l9.04,124.13l27.26,1.39
		c0,0,70.19-172.47-26.96-199.43l-87.3,0.43l-35.95-2.57c0,0-36.38-8.99-36.8-7.28C1378.18,889.23,1368.76,901.64,1367.9,900.78z"/>
	<path class="st14" d="M1433.67,723.46c0,0,35.95,4.56,45.08,11.98c9.13,7.42,53.07,116.41,53.07,116.41l-36.52,42.8l-77.6,0.57
		c0,0-58.2,31.38-94.72,1.71c-36.52-29.67-17.69-132.95,3.42-155.21c21.11-22.25,58.77-21.68,58.77-21.68S1419.4,744,1433.67,723.46
		z"/>
	<path class="st20" d="M1364.05,777.67c1.29,5.94,2.07,11.97,2.63,18.02c0.31,3.02,0.44,6.06,0.62,9.1
		c0.09,3.04,0.16,6.08,0.12,9.13c-0.12,6.08-0.45,12.19-1.5,18.21c-1.02,6-2.51,12.02-5.3,17.44c1.88-5.78,2.81-11.73,3.48-17.69
		c0.66-5.97,0.89-11.98,0.97-18c0.12-6.02-0.02-12.04-0.21-18.08C1364.65,789.77,1364.38,783.73,1364.05,777.67z"/>
	<path class="st20" d="M1471.61,773.68c1.64,8.84,3.38,17.65,5.15,26.44c1.81,8.78,3.67,17.55,5.8,26.25
		c2.1,8.7,4.44,17.35,7.26,25.82c1.42,4.24,3,8.42,4.85,12.47c1.83,4.07,3.99,8,6.9,11.44c-3.3-3.08-5.73-6.99-7.93-10.93
		c-2.13-3.99-3.96-8.14-5.54-12.37c-1.62-4.22-3-8.52-4.31-12.83c-1.27-4.33-2.42-8.68-3.51-13.06c-1.03-4.38-2.02-8.78-2.91-13.19
		c-0.86-4.42-1.7-8.84-2.41-13.28C1473.5,791.57,1472.36,782.64,1471.61,773.68z"/>
	<path class="st25" d="M1489.68,869.98c-0.23-1.81-13.94-3.82-18.98-4.08c-3.82-0.2-29.14-1.04-37.75-1.43l0.63,2.21l-0.13,9.78
		l-1.41,6.48c7.55,0.48,26.03,1.2,29.87,1.96c5.14,1.02,14.05,4.89,14.05,4.89s3.71-0.84-1-2.87c-3.78-1.63-6.44-4.16-7.56-5.42
		c-0.65-0.72,0.05-2.01,0.52-1.89c12.82,3.36,14.14,3.92,14.14,3.92s15.07-0.08,0.08-3.47c-8.98-2.03-12.2-3.21-13-4.22
		c-0.34-0.43,0.27-1.89,0.82-1.92c7.78-0.48,21.75,2.28,17.92,0.47c-3.12-1.48-12.95-3.09-16.77-3.7c-0.23-0.04-0.61-1.46,0.43-1.55
		C1478.96,868.52,1489.89,871.66,1489.68,869.98z"/>
	<path class="st20" d="M1355.28,848.07c3.16,0.77,6.27,1.65,9.44,2.31c3.15,0.75,6.34,1.3,9.5,1.96c6.36,1.16,12.74,2.17,19.14,3.07
		c6.41,0.84,12.82,1.62,19.26,2.24c6.41,0.64,12.93,1.18,19.27,1.54l0.85,0.05l0.19,0.74c0.54,2.15,0.9,4.25,1.17,6.4
		c0.27,2.14,0.38,4.3,0.38,6.46c-0.02,2.16-0.2,4.33-0.56,6.47c-0.39,2.14-1.03,4.23-1.88,6.24l-0.07,0.17l-0.14,0.09l-7.05,4.73
		c-2.35,1.58-4.71,3.14-7.08,4.68c2.21-1.77,4.44-3.51,6.68-5.24l6.72-5.19l-0.21,0.27c0.71-1.94,1.21-3.95,1.48-6
		c0.25-2.05,0.36-4.13,0.3-6.21c-0.07-2.08-0.27-4.15-0.56-6.21c-0.3-2.05-0.71-4.13-1.25-6.08l1.04,0.79
		c-3.35-0.09-6.53-0.3-9.79-0.54c-3.24-0.24-6.48-0.5-9.71-0.84c-6.46-0.67-12.91-1.47-19.33-2.5c-6.42-1.04-12.8-2.29-19.13-3.78
		c-3.15-0.81-6.31-1.58-9.41-2.56C1361.4,850.25,1358.33,849.16,1355.28,848.07z"/>
	<path class="st6" d="M1652.02,797.36h-140.37l-39.8,97.15h-48.45c-1.89,0-3.48,1.85-3.42,3.42c0.06,1.89,1.53,3.42,3.42,3.42
		h181.98L1652.02,797.36z"/>
	<path class="st27" d="M1582.41,852.79c-0.83,4.14-4.44,6.91-8.06,6.18c-3.62-0.73-5.89-4.67-5.06-8.81
		c0.83-4.14,4.44-6.91,8.06-6.18C1580.98,844.71,1583.24,848.65,1582.41,852.79z"/>
	<path class="st2" d="M1462.72,619.85c0,0,11.98,0.39-0.59-9.75c-12.58-10.13-46.34-22.02-67.99-10.59c0,0-4.33-9.2-10.58-7
		c-6.26,2.2,4.07,8.53,4.07,8.53s-7.99-0.26-10.43,3.66c-1.8,2.9,3.09,3.02,5.76,2.89c-4.55,0.77-21.98,11.79-13.23,46.94
		c3.11-0.68,20.84-26.39,20.84-26.39s40.53,22.52,36.53,4.61c0,0,41.99,26.21,36.04,4.56
		C1463.13,637.32,1479.37,638.51,1462.72,619.85z"/>
	<path class="st2" d="M1369.69,654.75c0,0,3.36-1.18,6.97,1.68c3.61,2.86,3.21,12.93,3.21,12.93s17.23,11.11,15.41-35.91
		c-1.93-50.02-14.37,4.01-14.37,4.01L1369.69,654.75z"/>
	<polygon class="st21" points="594.49,591.29 489.59,733.57 527.49,751.68 481.55,866.31 594.71,734.84 550.24,717.27 	"/>
	<path class="st25" d="M863.09,1412.43l21.83-13.46l18.85,11.39l-6.58,4.69l-22.86,3.22c0,0-8.92-1.14-9.31-1.41
		C864.61,1416.59,863.09,1412.43,863.09,1412.43z"/>
	<path class="st4" d="M863.09,1412.43l-5.53,3.56c-2.56,1.62-1.43,5.58,1.6,5.59l41.88,0.2c1.48,0.01,2.68-1.18,2.69-2.66l0.04-8.76
		C875.83,1419.1,866.21,1416.35,863.09,1412.43z"/>
	<path class="st25" d="M954.95,1413.21l21.83-13.46l18.85,11.39l-6.58,4.69l-22.86,3.22c0,0-8.92-1.14-9.31-1.41
		C956.47,1417.38,954.95,1413.21,954.95,1413.21z"/>
	<path class="st4" d="M954.95,1413.21l-5.53,3.56c-2.56,1.62-1.43,5.58,1.6,5.59l41.88,0.2c1.48,0.01,2.68-1.18,2.69-2.66l0.04-8.76
		C967.69,1419.88,958.07,1417.14,954.95,1413.21z"/>
	<polygon class="st21" points="52.6,824.58 131.7,936.45 154.27,912.98 227.4,974.73 158.26,859.42 134.5,887.85 	"/>
	<polygon class="st21" points="300.92,658.95 288.26,760.1 312.43,758.53 321.64,829.14 341.5,731.1 314.18,734.8 	"/>
	<path class="st4" d="M1168.88,1042.24c0,0,13.47-8.82,28.8,0c15.33,8.82,15.33,38.56,9.29,45.67c-6.04,7.12,0.31,16.75-11.77,26.04
		c-12.08,9.29-31.31,12.7-42.29,1.85c-10.98-10.85-2.93-35.07-2.93-35.07L1168.88,1042.24z"/>
	<path class="st25" d="M999.25,1141.28c-0.25,0.62-1.1,0.72-1.48,0.17c-2.96-4.29-12.37-17.75-13.64-17.24
		c-1.5,0.6,6.61,12.83,5.71,14.03c-0.9,1.2-8.52-10.92-10.02-10.02c-1.5,0.9,5.81,11.72,5.31,12.32c-0.5,0.6-8.62-9.02-9.82-9.02
		c-1.2,0,6.21,11.32,5.81,12.22c-0.4,0.9-8.12-5.21-8.72-4.61c-0.6,0.6-1.1,0.9,12.32,19.64c0,0,5.84,5.9,6.24,8.3l7.08,2.22
		l7.21-7.11c0,0,0.7-29.66-0.3-30.36C1004.01,1131.16,1003.15,1131.67,999.25,1141.28z"/>
	<polygon class="st28" points="1024.6,1318.86 997.18,1412.56 964.05,1403.29 975.09,1324.61 1009.35,1301.11 	"/>
	<path class="st2" d="M1131.62,1126.57c0,0-57.51,70.76-67.26,82.02l-58.26-57.51c0,0-11.75,6.5-17.75,13.5
		c0,0,23.5,54.26,43.76,68.51l40.51,27.25l-7.75,18.5l14.5,11.25l7.63-18.25l20.88-46.26l19.75-61.51l3.75-30.51L1131.62,1126.57z"
		/>
	<path class="st20" d="M1131.37,1133.58c0,0-24.25,39.51-29.26,54.76c-5,15.25-1,16.5-3.25,35.01
		c-2.25,18.5-19.25,68.01-19.25,68.01l28.26,19c0,0,15.25-48.76,15.25-50.76s14.25-91.27,14.25-91.27l11.75-33.26L1131.37,1133.58z"
		/>
	<path class="st14" d="M1105.12,1308.36c0,0-48.51-43.51-86.02-52.26c-37.51-8.75-138.39,143.41-138.39,143.41l24.12,17.37
		c0,0,87.27-62.76,103.77-90.77c0,0,70.9,93.49,94.65,95.74c23.75,2.25,50.55-2.77,82.13-40.73
		C1221.19,1338.09,1105.12,1308.36,1105.12,1308.36z"/>
	<path class="st25" d="M1153.38,1095.07l10.75,29.01c0,0-7.78,17.72-33.85,11.16c0,0,2.72-6.19-1.69-18.57
		C1124.09,1104.02,1153.38,1095.07,1153.38,1095.07z"/>
	<path class="st29" d="M1153.38,1095.07l5.04,13.55c-2.33,10.12-10.86,17.27-27.34,20c-0.1-2.98-0.71-6.95-2.49-11.95
		C1124.09,1104.02,1153.38,1095.07,1153.38,1095.07z"/>
	<path class="st20" d="M1004.35,1297.73c-0.48,2.38-0.7,4.81-0.69,7.24c0.01,2.43,0.21,4.87,0.58,7.27
		c0.38,2.41,0.92,4.78,1.57,7.13c0.65,2.35,1.45,4.64,2.43,6.9l0.57-0.49c-1.3-0.86-2.54-1.9-3.72-2.97
		c-1.18-1.07-2.33-2.19-3.43-3.35c-1.09-1.17-2.13-2.39-3.15-3.64c-1.02-1.24-1.96-2.54-2.92-3.84c0.83,1.38,1.71,2.73,2.65,4.05
		c0.92,1.33,1.96,2.57,3,3.8c1.07,1.21,2.17,2.41,3.35,3.51c1.2,1.1,2.41,2.16,3.79,3.09l1.09,0.74l-0.52-1.23
		c-0.93-2.2-1.67-4.5-2.36-6.8c-0.67-2.31-1.23-4.65-1.64-7.02c-0.42-2.37-0.74-4.76-0.83-7.17
		C1004,1302.56,1004.08,1300.14,1004.35,1297.73z"/>
	<path class="st26" d="M1093.58,1075.74c2.27,4.69,1.06,9.96-2.69,11.78c-3.75,1.81-8.63-0.52-10.9-5.21
		c-2.27-4.69-1.06-9.96,2.69-11.78C1086.43,1068.72,1091.31,1071.05,1093.58,1075.74z"/>
	<path class="st25" d="M1096.75,1103.82c-1.33-2-2.48-4.14-3.44-6.39c-2.7-6.05-4.28-12.55-5.2-18.25c-0.2-1.22-0.47-2.43-0.76-3.64
		c-1.17-4.87-1.49-10.08-0.67-15.52c2.62-17.49,16.69-31.44,34.22-33.86c23.6-3.26,44.4,14.21,45.86,37.36
		c2.43-1.56,5.23-2.06,7.79-1.11c4.91,1.83,7.03,8.29,4.75,14.42c-2.29,6.14-8.12,9.63-13.03,7.8c-0.68-0.25-1.3-0.6-1.87-1.02
		c-0.76,19.82-15.93,36.05-35.31,36.96c-9.48,0.44-18.29-2.86-25.13-8.64c-0.45-0.33-0.93-0.73-1.44-1.19
		C1100.29,1108.71,1098.39,1106.36,1096.75,1103.82z"/>
	<path class="st26" d="M1117.49,1066.25c0.09,2.28,0.16,4.54,0.1,6.77c-0.06,1.11-0.09,2.22-0.29,3.29
		c-0.18,1.05-0.43,2.12-0.93,2.92l-0.2,0.28c-0.07,0.1-0.11,0.17-0.23,0.32c-0.19,0.27-0.42,0.5-0.56,0.81
		c-0.16,0.3-0.32,0.59-0.4,0.93c-0.12,0.32-0.16,0.66-0.17,1.01c-0.07,1.39,0.67,2.66,1.6,3.48c0.94,0.85,2.09,1.33,3.25,1.56
		c1.16,0.22,2.34,0.22,3.47,0.02c-1.14-0.13-2.24-0.33-3.26-0.72c-1.02-0.38-1.95-0.95-2.63-1.69c-0.66-0.75-1.12-1.66-1-2.56
		c0.03-0.22,0.05-0.44,0.14-0.66c0.05-0.22,0.17-0.42,0.28-0.62c0.09-0.21,0.29-0.38,0.42-0.57c0.15-0.19,0.39-0.52,0.58-0.78
		c0.66-1.15,0.9-2.35,1.06-3.52c0.13-1.18,0.12-2.34,0.05-3.5C1118.6,1070.69,1118.19,1068.43,1117.49,1066.25z"/>
	<path class="st14" d="M1130.86,1069.3c0.09,1.94,1.74,3.44,3.68,3.35s3.44-1.74,3.35-3.68c-0.09-1.94-1.74-3.44-3.68-3.35
		C1132.27,1065.71,1130.77,1067.36,1130.86,1069.3z"/>
	<path class="st14" d="M1100.77,1072.69c0.09,1.94,1.74,3.44,3.68,3.35c1.94-0.09,3.44-1.74,3.35-3.68
		c-0.09-1.94-1.74-3.44-3.68-3.35C1102.18,1069.11,1100.68,1070.75,1100.77,1072.69z"/>
	<path class="st30" d="M1132.46,1096.01c0,0-5.1-1.62-9.71,1.66c0,0-5.23-3.01-9.15,0.19c0,0,2.15,7.55,10.54,6.73
		C1132.52,1103.77,1132.46,1096.01,1132.46,1096.01z"/>
	<path class="st26" d="M1136.76,1093.12c-0.92,0.8-1.89,1.55-2.91,2.21c-1,0.68-2.05,1.29-3.13,1.81c-2.17,1.05-4.46,1.81-6.83,2.1
		c-2.37,0.3-4.77,0.09-7.09-0.52c-2.31-0.65-4.51-1.71-6.59-2.99c0.94,0.79,1.94,1.51,3.01,2.13c1.06,0.63,2.21,1.11,3.38,1.54
		c1.18,0.39,2.41,0.67,3.66,0.8c1.25,0.12,2.51,0.1,3.75-0.04c2.49-0.32,4.89-1.16,7.05-2.39
		C1133.2,1096.54,1135.18,1095,1136.76,1093.12z"/>
	<path class="st4" d="M1126.44,1061.36c1.79-0.55,3.48-0.98,5.15-1.24c1.67-0.26,3.3-0.3,4.89-0.11c1.58,0.21,3.17,0.55,4.7,1.25
		c0.81,0.25,1.52,0.73,2.34,1.08c0.79,0.39,1.53,0.9,2.41,1.29c-0.44-0.82-0.96-1.62-1.56-2.35c-0.66-0.66-1.3-1.41-2.13-1.92
		c-1.55-1.18-3.49-1.85-5.45-2.1c-1.97-0.24-3.99,0.05-5.78,0.77C1129.23,1058.76,1127.59,1059.85,1126.44,1061.36z"/>
	<path class="st4" d="M1110.94,1063.1c-1.42-1.26-3.23-2.01-5.12-2.38c-1.9-0.36-3.93-0.25-5.82,0.37
		c-1.88,0.62-3.65,1.66-4.94,3.12c-0.72,0.66-1.19,1.51-1.72,2.29c-0.45,0.84-0.8,1.72-1.08,2.61c0.79-0.55,1.42-1.19,2.12-1.73
		c0.74-0.5,1.34-1.1,2.09-1.51c1.36-0.98,2.86-1.62,4.37-2.14c1.52-0.5,3.13-0.77,4.81-0.84
		C1107.34,1062.82,1109.08,1062.91,1110.94,1063.1z"/>
	<g>
		
			<ellipse transform="matrix(0.7071 -0.7071 0.7071 0.7071 -562.451 1034.2328)" class="st10" cx="967.2" cy="1196.05" rx="123.49" ry="123.49"/>
		
			<ellipse transform="matrix(0.0457 -0.999 0.999 0.0457 -271.7878 2107.6091)" class="st11" cx="967.2" cy="1196.06" rx="111.07" ry="111.07"/>
		<g>
			<g>
				<path class="st10" d="M1006.08,1292.5c-53.18,21.43-113.88-4.39-135.32-57.57c-21.44-53.18,4.39-113.88,57.57-135.32
					c53.18-21.44,113.88,4.39,135.32,57.57C1085.08,1210.36,1059.26,1271.06,1006.08,1292.5z M929.76,1103.16
					c-51.22,20.65-76.1,79.12-55.45,130.34c20.65,51.22,79.12,76.1,130.34,55.45c51.22-20.65,76.1-79.12,55.45-130.34
					C1039.45,1107.39,980.98,1082.51,929.76,1103.16z"/>
			</g>
		</g>
		<path class="st12" d="M971,1159.26c-3.63-4.81-7.73-8.33-14.16-8.65c0.2,0.92,0.26,1.64,0.52,2.28
			c3.48,8.66,7.03,17.29,10.43,25.98c0.74,1.9,1.66,2.34,3.69,2.19c4.74-0.35,9.52-0.5,14.27-0.33
			c16.68,0.61,26.65,10.68,30.78,25.75c4.98,18.16-0.5,31.98-16.11,42.69c-2.85,1.95-3.21,3.66-1.75,6.46
			c1.06,2.05,1.77,4.27,2.72,6.63c-3.75,1.51-7.29,2.94-11.17,4.5c-1.37-3.39-2.72-6.74-4.04-10.03
			c-25.93,5.89-40.31-8.66-46.59-21.29c6.31-3.39,12.63-6.78,19.11-10.25c4.83,6.51,10.66,10.95,19.7,12.38
			c-1.94-4.81-3.61-8.96-5.28-13.11c-2.29-5.67-4.67-11.3-6.81-17.01c-0.79-2.11-1.82-2.86-4.12-2.7
			c-7.36,0.53-14.66,0.11-21.59-2.78c-14.04-5.85-20.65-17.4-22.1-31.61c-1.35-13.27,5-23.52,16.18-30.71
			c0.75-0.48,1.5-0.95,2.24-1.45c0.27-0.18,0.5-0.44,0.96-0.86c-1.07-2.66-2.18-5.4-3.38-8.38c3.8-1.53,7.34-2.96,11.34-4.57
			c0.8,1.99,1.76,3.97,2.4,6.05c0.68,2.2,1.86,2.51,3.99,2.04c9.49-2.12,18.55-1.17,26.76,4.46c4.34,2.98,7.8,6.78,10.64,11.73
			C983.37,1152.25,977.34,1155.67,971,1159.26z M978.01,1203.61c4.11,10.19,8.1,20.1,12.1,30.02c6.64-3.45,9.73-11.82,7.34-19.61
			C995.11,1206.4,987.73,1202.29,978.01,1203.61z M944.86,1155.19c-5.33,5.19-7.01,12.37-4.47,17.71c2.8,5.9,9.25,9.61,15.16,8.82
			C952.05,1173.02,948.54,1164.3,944.86,1155.19z"/>
	</g>
	<path class="st25" d="M1010.95,1218.61c0.27,0.69-0.33,1.41-1.06,1.26c-5.62-1.19-23.34-4.82-23.97-3.45
		c-0.75,1.62,15.01,5.25,15.2,6.89c0.19,1.65-15.09-2.28-15.61-0.42c-0.52,1.86,13.53,4.97,13.59,5.83
		c0.06,0.86-13.72-0.68-14.69,0.23c-0.96,0.91,13.55,4.35,13.91,5.37c0.36,1.02-10.44,1.98-10.46,2.92
		c-0.02,0.94-0.2,1.56,24.74,6.37l9.9,1.47l8.73-3.16l0.38-11.16c0,0-21.91-24.25-23.24-24.05
		C1007.09,1206.9,1006.79,1207.97,1010.95,1218.61z"/>
	<path class="st3" d="M1163.38,1119.2c0,0,49.51,59.64,42.76,164.66c-6.75,105.02-7.88,105.77-7.88,105.77s-30.38-3.25-52.88-21.25
		c-22.5-18-50.01-30.26-50.01-30.26l18.25-59.26c0,0-23.75,0.75-41.01-6.5c-17.25-7.25-53.26-26.51-53.26-26.51s3-17.75,6.75-23.25
		c0,0,45.76,14,68.76,14.25C1094.87,1236.85,1121.62,1154.33,1163.38,1119.2z"/>
	<path class="st2" d="M1159.82,1138.33c-7.53,6.51-14.49,13.69-21.02,21.21c-6.54,7.53-12.58,15.49-18.17,23.75l-2.07,3.12
		c-0.69,1.04-1.39,2.07-2.02,3.15l-3.89,6.4c-0.66,1.06-1.23,2.17-1.83,3.26l-1.79,3.29l-1.78,3.29c-0.58,1.1-1.08,2.25-1.63,3.37
		l-3.21,6.76l-2.81,6.93l-1.38,3.47l-1.17,3.55c-0.79,2.36-1.55,4.73-2.31,7.1c0.93-2.31,1.84-4.63,2.73-6.94l1.34-3.47l1.55-3.39
		l3.06-6.78l3.38-6.63c0.57-1.1,1.1-2.22,1.71-3.3l1.83-3.24l1.83-3.24c0.62-1.08,1.19-2.17,1.87-3.21l3.9-6.33
		c0.63-1.07,1.33-2.09,2.02-3.12l2.07-3.09c5.53-8.23,11.47-16.18,17.77-23.85l4.8-5.69c1.65-1.86,3.26-3.74,4.93-5.58
		C1152.84,1145.41,1156.28,1141.82,1159.82,1138.33z"/>
	<path class="st2" d="M1181.19,1179.96c-4.08,9.17-8.43,18.21-12.92,27.16c-2.27,4.47-4.57,8.91-6.97,13.31
		c-2.38,4.41-4.83,8.77-7.4,13.06c-2.53,4.31-5.19,8.56-7.98,12.7c-1.36,2.1-2.82,4.13-4.25,6.17c-1.49,2-2.96,4.03-4.52,5.98
		c-3.11,3.91-6.38,7.69-9.97,11.15c-3.58,3.47-7.54,6.58-11.99,8.92c4.62-2,8.75-5.02,12.55-8.31c3.77-3.36,7.21-7.06,10.44-10.93
		c3.25-3.85,6.22-7.93,9.07-12.08c2.85-4.15,5.53-8.41,8.1-12.74c5.13-8.66,9.79-17.58,14.1-26.65
		C1173.76,1198.62,1177.72,1189.38,1181.19,1179.96z"/>
	<path class="st4" d="M1085.17,1029.43c5.79-12.6,17.06-19.71,26.79-23.67c11.97-4.86,25.4-5.23,37.49-0.69
		c34.1,12.81,27.3,50.42,25.7,57.45c-1.63-0.38-3.87-0.33-6.6,1.15c-1.15,0.62-2.07,1.28-2.83,1.94
		c-6.63-2.02-8.64-13.04-12.08-18.34c-4.66-7.2-22.73-0.34-30.52-5.45c-7.79-5.11-9.12-10.42-9.12-10.42
		c-30.04,4.76-27.79,38.57-27.79,38.57c-1.3-0.29-4.3-5.16-4.3-5.16S1074.52,1052.6,1085.17,1029.43z"/>
	<polygon class="st25" points="2200.11,1506.61 2135.95,1546.94 2131.15,1925.96 2143.94,1934.75 2156.49,1931.96 2192.89,1682.76 
		2222.6,1521.9 	"/>
	<path class="st25" d="M2330.41,1878.19c-28.72-77.13-78.66-129.64-78.66-129.64s9.39-25.31,19.02-108.82
		c9.63-83.51-31.05-135.97-31.05-135.97l-71.96,21.52c0,0,36.63,218.83,42.52,232.75c4.61,10.9,63.17,89.26,88.35,122.73l0.04,0.59
		l11.35,14.51v0l0,0l10.75,13.74l12.71-5.75l2.25-15.87L2330.41,1878.19z"/>
	<path class="st14" d="M2135.9,1541.59c0,0-16.85,128.66-14.96,224.77c0,0,65.1,10.28,112.9,6.68l2.06-55l10.28,51.91
		c0,0,23.64-1.03,34.44-9.77c0,0-6.58-54.93-4.63-97.14c1.96-42.21,0.19-95.33-13.71-130.57c-13.9-35.23-91.15,3.36-91.15,3.36
		L2135.9,1541.59z"/>
	<path class="st14" d="M2222.85,1217.56c0,0,14.79,11.32,19.24,27.34c3.79,13.67,20.71,11.28,31.29,29.55
		c11.75,20.29,28.45,50.65-9.86,71.12c-23.8,12.71-61.69,22.5-70.28,13.92s-29.07-5.15-24.47-95.33c0,0,56.02-31.65,56.58-31.84
		C2225.9,1232.13,2222.85,1217.56,2222.85,1217.56z"/>
	<path class="st5" d="M2148.27,1475.77l6.85-29.48l-17.06-45.79c0,0-9.35,36.34-23.34,68.74l-51.4,6.25l-10.85,2.05
		c0,0,70.35,40.11,89.45,10.59c2,0.49,3.28,0.8,3.28,0.8l1.82-7.84c1.02-1.73,1.86-3.51,2.42-5.31L2148.27,1475.77z"/>
	<polygon class="st25" points="2213.68,1316.04 2212.3,1337.7 2182.78,1343.84 2177.56,1343.84 2178.65,1317.89 2209.97,1306.83 	
		"/>
	<path class="st25" d="M2167.37,1350.72c-1.34,14.55,4.68,17.26,4.68,17.26l44.59-33.09c-27.67,2.71-45.57,5.68-45.57,5.68
		S2168.77,1351.12,2167.37,1350.72z"/>
	<path class="st14" d="M2241.34,1268.93c0,0,9.1-37.35-12.58-51.34c-21.68-13.99-44.67-12.43-60.32-4.05
		c-15.65,8.38-25.03,37.6-18.01,54.3l51.96-15.94L2241.34,1268.93z"/>
	<path class="st26" d="M2214.31,1310.38c0,0-0.63,6.29-1.17,14.12c-11.23,12.3-32.28,8.08-35.05,6.89c0.17-3.94,0-11.91,0-11.91
		L2214.31,1310.38z"/>
	<path class="st26" d="M2157.19,1274.44c1.85,5.03,0.09,10.3-3.93,11.78c-4.02,1.48-8.78-1.39-10.63-6.42s-0.09-10.3,3.93-11.78
		C2150.58,1266.54,2155.34,1269.41,2157.19,1274.44z"/>
	<path class="st25" d="M2157.61,1303.48c-1.16-2.18-2.13-4.48-2.88-6.89c-2.15-6.46-3.12-13.27-3.49-19.19
		c-0.08-1.27-0.23-2.54-0.41-3.8c-0.71-5.09-0.51-10.46,0.87-15.94c4.44-17.63,20.23-30.48,38.39-31.2
		c24.47-0.97,43.98,18.99,43.17,42.81c2.64-1.35,5.56-1.58,8.08-0.35c4.84,2.36,6.36,9.18,3.41,15.23
		c-2.95,6.05-9.27,9.03-14.11,6.67c-0.67-0.33-1.27-0.75-1.81-1.24c-2.76,20.2-19.91,35.27-39.82,34.26
		c-9.74-0.5-18.42-4.76-24.84-11.36c-0.43-0.39-0.88-0.84-1.35-1.36C2160.74,1308.83,2159.03,1306.24,2157.61,1303.48z"/>
	<path class="st14" d="M2194.87,1274.97c-0.11,2.15,1.54,3.98,3.69,4.08c2.15,0.11,3.98-1.54,4.08-3.69s-1.54-3.98-3.69-4.08
		C2196.8,1271.17,2194.97,1272.82,2194.87,1274.97z"/>
	<path class="st14" d="M2160.31,1274.97c-0.11,2.15,1.54,3.98,3.69,4.08c2.15,0.11,3.97-1.54,4.08-3.69
		c0.11-2.15-1.54-3.98-3.69-4.08C2162.25,1271.17,2160.42,1272.82,2160.31,1274.97z"/>
	<path class="st14" d="M2191.59,1268.48c1.77-0.94,3.61-1.63,5.48-2.1c1.88-0.45,3.79-0.61,5.67-0.43c0.94,0.08,1.87,0.27,2.79,0.53
		c0.46,0.12,0.91,0.29,1.36,0.44c0.23,0.08,0.44,0.18,0.66,0.27c0.22,0.09,0.45,0.18,0.66,0.29c1.74,0.83,3.38,1.92,4.98,3.13
		c-1.19-1.62-2.71-3.01-4.46-4.08c-0.88-0.54-1.82-0.99-2.8-1.31c-0.98-0.33-2.01-0.56-3.05-0.65c-2.07-0.19-4.18,0.09-6.11,0.78
		c-0.97,0.34-1.89,0.79-2.77,1.3C2193.13,1267.17,2192.3,1267.76,2191.59,1268.48z"/>
	<path class="st14" d="M2175.91,1268.48c-0.71-0.72-1.54-1.31-2.4-1.84c-0.88-0.51-1.8-0.96-2.77-1.3c-1.93-0.7-4.04-0.98-6.11-0.78
		c-1.04,0.09-2.06,0.32-3.05,0.65c-0.99,0.32-1.93,0.77-2.8,1.31c-1.76,1.07-3.27,2.47-4.46,4.08c1.6-1.21,3.24-2.3,4.98-3.13
		c0.21-0.11,0.44-0.2,0.66-0.29c0.22-0.09,0.44-0.2,0.66-0.27c0.45-0.16,0.9-0.33,1.36-0.44c0.91-0.26,1.84-0.45,2.79-0.53
		c1.88-0.18,3.8-0.01,5.67,0.43C2172.3,1266.85,2174.14,1267.54,2175.91,1268.48z"/>
	<path class="st20" d="M2264.83,1399.28c-0.94-0.98-1.83-2.08-2.64-3.2c-0.81-1.13-1.58-2.3-2.25-3.53
		c-0.69-1.21-1.31-2.47-1.84-3.77c-0.56-1.29-0.97-2.63-1.4-3.99c0.18,1.41,0.45,2.81,0.89,4.17c0.2,0.69,0.46,1.35,0.71,2.02
		c0.29,0.65,0.56,1.32,0.89,1.96c0.65,1.28,1.37,2.53,2.2,3.7c0.66,0.95,1.37,1.85,2.16,2.71c-0.72,0.14-1.47,0.24-2.2,0.27
		c-1.02,0.05-2.05,0.01-3.07-0.14c-0.51-0.06-1.01-0.18-1.52-0.29c-0.49-0.15-1-0.27-1.48-0.46c-0.99-0.33-1.91-0.83-2.83-1.36
		c0.82,0.67,1.69,1.3,2.66,1.75c0.96,0.49,1.99,0.83,3.04,1.05s2.14,0.35,3.22,0.32c1.09-0.02,2.15-0.12,3.25-0.41l0.78-0.21
		L2264.83,1399.28z"/>
	<path class="st26" d="M2180.47,1273.18c-1.09,1.77-2.03,3.62-2.88,5.51c-0.85,1.89-1.59,3.84-2.17,5.86
		c-0.27,1.02-0.51,2.05-0.58,3.16c-0.01,0.28-0.01,0.57,0.03,0.87c0.02,0.15,0.06,0.31,0.09,0.47c0.07,0.17,0.11,0.33,0.23,0.5
		c0.06,0.09,0.13,0.17,0.19,0.25l0.16,0.14c0.11,0.09,0.21,0.19,0.32,0.27c0.23,0.16,0.45,0.32,0.68,0.45
		c0.92,0.57,1.9,0.97,2.89,1.32c0.99,0.33,1.99,0.62,3.02,0.79c-1.87-0.89-3.75-1.77-5.35-2.93c-0.2-0.14-0.38-0.3-0.56-0.46
		l-0.25-0.24l-0.12-0.12c-0.01-0.03-0.02-0.05-0.03-0.07c-0.12-0.2-0.14-0.72-0.09-1.17c0.1-0.95,0.33-1.93,0.61-2.9
		c0.53-1.95,1.21-3.89,1.87-5.83C2179.18,1277.11,2179.86,1275.16,2180.47,1273.18z"/>
	<path class="st4" d="M2257.78,1461.06C2257.78,1461.06,2257.78,1461.05,2257.78,1461.06c5.3-29.52,7.58-61.19,7.58-61.19
		c0.3-7.3-8.35-17.38-8.74-23.1c-7.39-6.02-9.14-10.93-9.14-10.93l-12.88-26.74c0,0-8.57-4.19-8.57-4.2
		c-6.7-0.63-9.97-0.02-9.97-0.02l-22.09,16.63c-9.24,6.95-22.48,0.64-22.9-10.92l0,0c-0.01,0-0.01,0-0.02-0.01
		c-19.38,15.54-32.42,22.55-35.11,47.51c-1.88,17.42,7.59,32.17,8.64,48.76l-8.68,104.75c0,0,73.12,0.83,126.38-9.1
		C2262.28,1532.49,2257.29,1502.9,2257.78,1461.06z"/>
	<g>
		<path class="st14" d="M2129.85,1536.97l-76.3,4.6c-4.82,0.29-10.16-2.8-11.94-6.9l-40.14-92.88c-1.77-4.1,0.7-7.66,5.52-7.95
			l76.3-4.6c4.82-0.29,10.16,2.8,11.94,6.9l40.14,92.88C2137.14,1533.12,2134.67,1536.68,2129.85,1536.97z"/>
		<path class="st31" d="M2060.7,1435.27l-25.97,1.57c-2.08,0.13-4.39-1.21-5.16-2.98l-0.72-1.67c-0.77-1.77,0.3-3.31,2.38-3.44
			l25.97-1.57c2.08-0.13,4.39,1.21,5.16,2.98l0.72,1.66C2063.85,1433.61,2062.78,1435.15,2060.7,1435.27z"/>
	</g>
	<path class="st25" d="M2032.3,1513.24l-0.33,0.14c-1.92,0.85-4.18,0.11-5.22-1.71l-11.96-20.76c-0.6-1-0.57-2.26,0.08-3.23
		c2.02-3.02,6.38-9.23,7.87-9.01c1.96,0.3-4.03,10.63-3.21,10.83c0.82,0.21,9.3-6.67,10.02-5.55c0.64,1-6.82,9-6.48,9.63
		c0.34,0.62,8.97-4.39,9.9-3.49c0.84,0.81-7.28,7.28-7.17,7.73L2032.3,1513.24z"/>
	<path class="st25" d="M2025.21,1498.07c0,0,8.63-2.62,9.39-1.65s-9.44,6.47-9.39,6.22
		C2025.25,1502.39,2025.21,1498.07,2025.21,1498.07z"/>
	<path class="st14" d="M2238.51,1263.78l-0.98-0.12l-0.65-8.1l-3.63-7.49c0,0-14.19-20.15-14.69-20.65
		c-0.5-0.5-11.32-6.99-11.99-7.33c-0.67-0.33-15.82,2.17-15.82,2.17s-26.66-5.74-22.15,9.16c4.51,14.9,23.98,22.65,24.98,21.98
		c-3.16-3.33-3.5-12.82-3.5-12.82c14.99,17.32,43.17,28.71,43.17,28.71s2.95-2.25,8.08-0.35L2238.51,1263.78z"/>
	<path class="st20" d="M2171.84,1298.9c1.04,4.6,5.49,8.01,10.78,7.92c5.28-0.09,9.61-3.66,10.48-8.29L2171.84,1298.9z"/>
	<path class="st25" d="M2271.04,1407.17c0,0-10.84-59.57-44.11-71.98c-9.01-3.36-18.62,3.25-18.67,12.88
		c-0.07,13.7,42.08,115.19,37.75,120.4c-5.9,7.09-114.04,32.64-117.66,33.49l-12.88-1.23c-10.61-0.74-21.86-2.18-22.48-1.39
		c-0.87,1.11-0.31,2.18,10.99,7.5c0.73,0.35,0.8,1.37,0.1,1.79c-5.36,3.28-22.18,13.72-21.66,15.28c0.62,1.85,15.87-7.12,17.26-5.95
		c1.38,1.16-13.71,9.53-12.73,11.4c0.98,1.87,14.49-6.22,15.18-5.58c0.69,0.64-11.43,9.78-11.51,11.22
		c-0.08,1.45,14.04-6.73,15.1-6.19s-6.82,9.42-6.13,10.19c0.68,0.76-1.95,1.9,21.5-13.02c0,0,5.78-3.89,7.9-5.52
		c0,0,134.31-18.96,142.66-29.58C2287.12,1471.15,2271.04,1407.17,2271.04,1407.17z"/>
	<path class="st5" d="M2271.04,1407.17c0,0-10.84-59.57-44.11-71.98c-9.01-3.36-18.62,3.25-18.67,12.88
		c-0.07,13.7,42.08,115.19,37.75,120.4c-5.9,7.09-114.04,32.64-117.66,33.49l-0.24-0.02c1.25,5.9,2.85,12.19,4.81,17.94
		c22.18-3.22,131.22-19.48,138.72-29.02C2287.12,1471.15,2271.04,1407.17,2271.04,1407.17z"/>
	<path class="st20" d="M2006.64,333.26c-5.2-22.63-25.45-39.51-49.65-39.51c-4.44,0-8.75,0.57-12.86,1.64
		c-11.95-25.55-37.87-43.25-67.94-43.25c-7.77,0-15.27,1.18-22.32,3.38c-16.19-26.8-45.59-44.72-79.18-44.72
		c-39.97,0-74.01,25.37-86.91,60.88c-9.13-5.09-19.64-8-30.84-8c-35.03,0-63.43,28.4-63.43,63.43c0,2.08,0.11,4.13,0.3,6.15H2006.64
		z"/>
	<path class="st20" d="M1240.89,538.02c2.75-11.97,13.46-20.9,26.26-20.9c2.35,0,4.63,0.3,6.8,0.87
		c6.32-13.51,20.03-22.87,35.93-22.87c4.11,0,8.08,0.63,11.8,1.79c8.56-14.18,24.11-23.65,41.88-23.65
		c21.14,0,39.14,13.42,45.96,32.2c4.83-2.69,10.39-4.23,16.31-4.23c18.53,0,33.55,15.02,33.55,33.55c0,1.1-0.06,2.18-0.16,3.26
		H1240.89z"/>
	<path class="st20" d="M1923.97,512.79c2.75-11.97,13.46-20.9,26.26-20.9c2.35,0,4.63,0.3,6.8,0.87
		c6.32-13.51,20.03-22.88,35.93-22.88c4.11,0,8.08,0.63,11.8,1.79c8.56-14.18,24.11-23.65,41.88-23.65
		c21.14,0,39.14,13.42,45.96,32.2c4.83-2.69,10.39-4.23,16.31-4.23c18.53,0,33.55,15.02,33.55,33.55c0,1.1-0.06,2.18-0.16,3.26
		H1923.97z"/>
	<path class="st20" d="M2231.12,848.07c3.33-14.5,16.31-25.32,31.82-25.32c2.85,0,5.61,0.37,8.24,1.05
		c7.66-16.37,24.27-27.71,43.54-27.71c4.98,0,9.79,0.76,14.3,2.17c10.37-17.17,29.21-28.66,50.74-28.66
		c25.61,0,47.42,16.25,55.69,39.01c5.85-3.26,12.59-5.13,19.76-5.13c22.45,0,40.65,18.2,40.65,40.65c0,1.33-0.07,2.65-0.19,3.94
		H2231.12z"/>
	<path class="st25" d="M2107.1,1934.83l26.53-16.37l22.91,13.84l-8,5.7l-27.78,3.92c0,0-10.84-1.39-11.32-1.71
		C2108.95,1939.89,2107.1,1934.83,2107.1,1934.83z"/>
	<path class="st2" d="M2107.1,1934.83l-6.72,4.32c-3.12,1.97-1.74,6.78,1.95,6.8l50.9,0.24c1.79,0.01,3.26-1.44,3.27-3.24
		l0.05-10.65C2122.59,1942.94,2110.9,1939.6,2107.1,1934.83z"/>
	<path class="st25" d="M2313.8,1932.36l-0.72-32.58l22.65-11.8l1.06,9.77l-10.14,26.16c0,0-6.5,8.79-7.02,9.05
		C2319.12,1933.21,2313.8,1932.36,2313.8,1932.36z"/>
	<path class="st2" d="M2313.8,1932.36l0.49,7.98c0.2,3.68,5.07,4.82,6.88,1.62l25.05-44.31c0.88-1.56,0.33-3.55-1.23-4.43
		l-9.27-5.24C2328.44,1922.79,2319.82,1931.37,2313.8,1932.36z"/>
	<g>
		<path class="st20" d="M1624.79,1136.79l-45.47-17.57c-1.13-0.44-1.7-1.71-1.26-2.85l0.34-0.88c0.44-1.13,1.71-1.7,2.85-1.26
			l45.47,17.57c1.13,0.44,1.7,1.71,1.26,2.85l-0.34,0.88C1627.2,1136.67,1625.92,1137.23,1624.79,1136.79z"/>
		<path class="st14" d="M1587.31,1099.16l-7.01,13.24c-0.86,1.63-0.51,3.56,0.75,4.04l43.69,16.88c1.14,0.44,2.53,0.16,3.64-0.94
			c1.14-1.13,2.06-3.14,1.17-6.66c-1.77-7.04-14.11-13.36-18.57-20.51l-20.35-7.87C1589.5,1096.92,1588.1,1097.68,1587.31,1099.16z"
			/>
		<g>
			<path class="st20" d="M1604.79,1112.09L1604.79,1112.09c-0.24-0.32-0.15-0.89,0.19-1.23c1.59-1.57,6.06-5.16,11.15-2.1
				c0.29,0.18,0.35,0.68,0.13,1.09l-0.01,0.01c-0.21,0.4-0.6,0.56-0.89,0.39c-4.57-2.72-8.42,0.48-9.73,1.8
				C1605.35,1112.33,1604.99,1112.35,1604.79,1112.09z"/>
		</g>
		<g>
			<path class="st20" d="M1608.64,1115.63L1608.64,1115.63c-0.24-0.32-0.15-0.89,0.19-1.23c1.59-1.57,6.06-5.16,11.15-2.1
				c0.29,0.18,0.35,0.68,0.13,1.09l-0.01,0.01c-0.21,0.4-0.6,0.56-0.89,0.39c-4.57-2.72-8.42,0.47-9.73,1.8
				C1609.19,1115.87,1608.84,1115.89,1608.64,1115.63z"/>
		</g>
		<g>
			<path class="st20" d="M1612.21,1118.92L1612.21,1118.92c-0.24-0.32-0.15-0.89,0.19-1.23c1.59-1.57,6.06-5.16,11.15-2.1
				c0.29,0.18,0.35,0.68,0.13,1.09l-0.01,0.01c-0.21,0.4-0.6,0.56-0.89,0.39c-4.57-2.72-8.42,0.48-9.73,1.8
				C1612.77,1119.17,1612.41,1119.19,1612.21,1118.92z"/>
		</g>
		<path class="st32" d="M1592.72,1120.95c0.89-12.54-4.57-16.07-7.91-17.07l-4.51,8.52c-0.86,1.63-0.51,3.56,0.75,4.04
			L1592.72,1120.95z"/>
	</g>
	<g>
		<path class="st20" d="M1578.47,1136.92l-46.59-14.36c-1.16-0.36-1.81-1.59-1.46-2.75l0.28-0.9c0.36-1.16,1.59-1.81,2.75-1.46
			l46.59,14.36c1.16,0.36,1.81,1.59,1.46,2.75l-0.28,0.9C1580.87,1136.62,1579.64,1137.27,1578.47,1136.92z"/>
		<path class="st14" d="M1538.47,1101.98l-6.07,13.7c-0.75,1.69-0.26,3.58,1.03,3.98l44.76,13.8c1.16,0.36,2.54-0.01,3.57-1.19
			c1.06-1.21,1.83-3.27,0.7-6.72c-2.26-6.9-15-12.34-19.95-19.16l-20.85-6.43C1540.5,1099.6,1539.15,1100.45,1538.47,1101.98z"/>
		<g>
			<path class="st20" d="M1556.8,1113.66L1556.8,1113.66c-0.26-0.3-0.21-0.88,0.1-1.24c1.48-1.68,5.69-5.57,10.98-2.88
				c0.31,0.16,0.39,0.65,0.2,1.08l-0.01,0.01c-0.19,0.41-0.56,0.6-0.86,0.45c-4.75-2.4-8.37,1.06-9.58,2.47
				C1557.38,1113.87,1557.02,1113.91,1556.8,1113.66z"/>
		</g>
		<g>
			<path class="st20" d="M1560.89,1116.93L1560.89,1116.93c-0.26-0.3-0.21-0.88,0.1-1.24c1.48-1.68,5.69-5.57,10.98-2.88
				c0.31,0.16,0.39,0.65,0.2,1.08l-0.01,0.01c-0.19,0.41-0.56,0.6-0.86,0.45c-4.75-2.4-8.37,1.06-9.58,2.47
				C1561.46,1117.13,1561.11,1117.17,1560.89,1116.93z"/>
		</g>
		<g>
			<path class="st20" d="M1564.69,1119.97L1564.69,1119.97c-0.26-0.3-0.21-0.88,0.1-1.24c1.48-1.68,5.69-5.57,10.98-2.88
				c0.31,0.16,0.39,0.65,0.2,1.08l-0.01,0.01c-0.19,0.41-0.56,0.6-0.86,0.45c-4.75-2.4-8.37,1.06-9.58,2.48
				C1565.26,1120.17,1564.9,1120.21,1564.69,1119.97z"/>
		</g>
		<path class="st32" d="M1545.38,1123.34c0.01-12.57-5.67-15.71-9.08-16.47l-3.9,8.81c-0.75,1.69-0.26,3.58,1.03,3.98
			L1545.38,1123.34z"/>
	</g>
</g>
</svg>
